<?xml version="1.0" standalone="no"?>
<!DOCTYPE svg PUBLIC "-//W3C//DTD SVG 20010904//EN"
 "http://www.w3.org/TR/2001/REC-SVG-20010904/DTD/svg10.dtd">
<svg version="1.0" xmlns="http://www.w3.org/2000/svg"
 width="55.000000pt" height="52.000000pt" viewBox="0 0 55.000000 52.000000"
 preserveAspectRatio="xMidYMid meet">

<g transform="translate(0.000000,52.000000) scale(0.100000,-0.100000)"
fill="#000000" stroke="none">
<path d="M0 260 l0 -260 275 0 275 0 0 260 0 260 -275 0 -275 0 0 -260z m350
230 c0 -5 11 -10 25 -10 14 0 25 -5 25 -11 0 -7 16 -25 35 -42 19 -16 35 -38
35 -48 0 -11 5 -19 10 -19 6 0 10 -38 10 -95 0 -57 -4 -95 -10 -95 -5 0 -10
-9 -10 -21 0 -22 -22 -49 -39 -49 -6 0 -11 -5 -11 -11 0 -17 -27 -39 -49 -39
-12 0 -21 -4 -21 -10 0 -6 -38 -10 -95 -10 -57 0 -95 4 -95 10 0 6 -8 10 -19
10 -10 0 -32 16 -48 35 -17 19 -35 35 -42 35 -6 0 -11 11 -11 25 0 14 -4 25
-10 25 -6 0 -10 38 -10 95 0 57 4 95 10 95 6 0 10 7 10 16 0 20 84 104 104
104 9 0 16 5 16 10 0 6 38 10 95 10 57 0 95 -4 95 -10z"/>
<path d="M190 440 c0 -5 -9 -10 -19 -10 -25 0 -81 -56 -81 -81 0 -10 -4 -19
-10 -19 -6 0 -10 -30 -10 -70 0 -40 4 -70 10 -70 6 0 10 -7 10 -15 0 -19 55
-75 74 -75 8 0 18 -5 21 -10 8 -13 145 -13 145 0 0 6 9 10 20 10 11 0 20 5 20
10 0 6 7 10 15 10 8 0 15 7 15 15 0 8 5 15 10 15 6 0 10 9 10 20 0 11 5 20 10
20 6 0 10 30 10 69 0 39 -4 73 -10 76 -5 3 -10 13 -10 21 0 19 -56 74 -75 74
-8 0 -15 5 -15 10 0 6 -30 10 -70 10 -40 0 -70 -4 -70 -10z m90 -104 l0 -45
48 -3 c40 -3 47 -6 50 -25 3 -21 0 -23 -47 -23 l-51 0 0 -51 c0 -47 -2 -50
-22 -47 -20 3 -23 10 -26 51 l-3 47 -45 0 c-40 0 -44 2 -44 25 0 23 4 25 45
25 l45 0 0 45 c0 41 2 45 25 45 23 0 25 -4 25 -44z"/>
</g>
</svg>
