<svg width="16" height="16" viewBox="0 0 16 16" fill="#000" xmlns="http://www.w3.org/2000/svg"><path d="M8.69 9.338a.667.667 0 0 1-1.334.004l1.334-.004Z"/><path d="m6.479 4.482.86-.864.017 5.724 1.333-.005-.017-5.723.864.859a.667.667 0 1 0 .94-.946l-2.48-2.464-2.463 2.48.946.94Z"/><path d="M5.534 3.543a.667.667 0 1 0 .945.94l-.945-.94ZM2.666 8c0-.736.597-1.333 1.334-1.333a.667.667 0 0 0 0-1.334A2.667 2.667 0 0 0 1.333 8v4A2.667 2.667 0 0 0 4 14.667h7.333a3.333 3.333 0 0 0 3.333-3.334V8A2.667 2.667 0 0 0 12 5.333a.667.667 0 1 0 0 1.334c.736 0 1.333.597 1.333 1.333v3.333a2 2 0 0 1-2 2H4A1.333 1.333 0 0 1 2.666 12V8Z"/></svg>
