<svg width="100%" height="100%" viewBox="0 0 26 26" fill="white" xmlns="http://www.w3.org/2000/svg">
<path d="M24.6364 8.09091V17.5455H23.4545V19.9091H22.2727V21.0909H21.0909V22.2727H19.9091V23.4545H17.5455V24.6364H8.09091V23.4545H5.72727V22.2727H4.54545V21.0909H3.36364V19.9091H2.18182V17.5455H1V8.09091H2.18182V5.72727H3.36364V4.54545H4.54545V3.36364H5.72727V2.18182H8.09091V1H17.5455V2.18182H19.9091V3.36364H21.0909V4.54545H22.2727V5.72727H23.4545V8.09091H24.6364ZM19.9091 6.90909V5.72727H18.7273V4.54545H16.3636V3.36364H9.27273V4.54545H6.90909V5.72727H5.72727V6.90909H4.54545V9.27273H3.36364V16.3636H4.54545V18.7273H5.72727V19.9091H6.90909V21.0909H9.27273V22.2727H16.3636V21.0909H18.7273V19.9091H19.9091V18.7273H21.0909V16.3636H22.2727V9.27273H21.0909V6.90909H19.9091ZM11.6364 6.90909H14V11.6364H18.7273V14H14V18.7273H11.6364V14H6.90909V11.6364H11.6364V6.90909Z"/>
</svg>

