<svg width="600" height="400" viewBox="0 0 600 400" fill="none" xmlns="http://www.w3.org/2000/svg">
    <path d="M98.9614 39.6618C119.061 28.566 142.703 26.4697 166.532 35.9762V51.4013H98.9614V39.6618Z" fill="black" stroke="white" stroke-width="1.2"/>
    <path d="M501.039 39.6618C480.939 28.566 457.297 26.4697 433.469 35.9762V51.4013H501.039V39.6618Z" fill="black" stroke="white" stroke-width="1.2"/>
    <path d="M135.175 37.6855C119.62 37.6413 104.408 40.6401 93.2033 46.8109C86.5648 60.2495 69.1354 78.2219 61.9333 107.165C36.2275 193.116 29.1206 265.735 25.6108 309.31C25.6108 342.858 52.7988 370.058 86.3473 370.058C113.451 370.058 135.242 354.274 143.751 326.736L168.607 255.358C172.305 249.478 181.349 247.06 187.097 246.423H412.903C418.651 247.06 427.696 249.478 431.393 255.358L456.249 326.736C464.758 354.274 486.549 370.058 513.653 370.058C547.201 370.058 574.389 342.858 574.389 309.31C570.88 265.735 563.773 193.116 538.067 107.165C530.865 78.2219 513.435 60.2495 506.797 46.8109C495.592 40.6401 480.38 37.6414 464.825 37.6855C449.269 37.7297 433.363 40.8167 420.786 46.8109H179.214C166.637 40.8167 150.731 37.7297 135.175 37.6855Z" fill="black" stroke="white" stroke-width="1.2"/>
    <path opacity="0.5" d="M135.175 37.6855C119.62 37.6413 104.408 40.6401 93.2034 46.8109C86.5648 60.2495 69.1354 78.2219 61.9333 107.165C40.4976 178.838 31.9935 241.245 27.725 285.266C27.5665 304.441 44.1587 320.598 79.3242 330.021C98.8666 335.257 123.518 338.722 143.751 326.736L168.607 255.358C172.305 249.478 181.349 247.06 187.097 246.423H266.192H333.808H412.903C418.651 247.06 427.696 249.478 431.393 255.358L456.249 326.736C476.482 338.722 501.134 335.257 520.676 330.021C555.841 320.598 572.434 304.441 572.275 285.266C568.007 241.245 559.503 178.838 538.067 107.165C530.865 78.2219 513.435 60.2495 506.797 46.8109C495.592 40.6401 480.38 37.6414 464.825 37.6855C449.269 37.7297 433.363 40.8167 420.786 46.8109H333.808H266.192H179.214C166.637 40.8167 150.731 37.7297 135.175 37.6855Z" fill="black" stroke="white" stroke-width="1.2"/>
    <path d="M217.495 45.2222C215.528 45.2222 210.054 45.6679 210.054 50.5135V66.7935V133.318C210.054 139.482 217.133 144.921 223.297 144.921H380.353C386.517 144.921 391.905 139.624 391.905 133.459V66.7935V50.5135C391.905 45.6679 386.43 45.2222 384.464 45.2222H367.264H234.695H217.495Z" fill="black" stroke="black" stroke-width="1.2"/>
    <path opacity="0.5" d="M217.495 45.2222C216.611 45.2222 215.016 45.3151 213.53 45.8552V64.8824V130.241C213.53 136.254 218.291 141.087 224.22 141.087H377.727C383.656 141.087 388.429 136.254 388.429 130.241V64.8824V45.8552C386.943 45.315 385.348 45.2222 384.464 45.2222H367.264H234.695H217.495Z" fill="black" stroke="white" stroke-width="1.2"/>
    <path opacity="0.5" d="M215.369 61.2393V63.1384H217.256V61.2393H215.369ZM219.585 61.2393V63.1384H221.484V61.2393H219.585ZM223.802 61.2393V63.1384H225.701V61.2393H223.802ZM228.03 61.2393V63.1384H229.929V61.2393H228.03ZM232.246 61.2393V63.1384H234.145V61.2393H232.246ZM236.475 61.2393V63.1384H238.374V61.2393H236.475ZM240.703 61.2393V63.1384H242.59V61.2393H240.703ZM244.919 61.2393V63.1384H246.818V61.2393H244.919ZM249.147 61.2393V63.1384H251.035V61.2393H249.147ZM253.364 61.2393V63.1384H255.263V61.2393H253.364ZM257.592 61.2393V63.1384H259.491V61.2393H257.592ZM261.808 61.2393V63.1384H263.707V61.2393H261.808ZM266.037 61.2393V63.1384H267.936V61.2393H266.037ZM270.253 61.2393V63.1384H272.152V61.2393H270.253ZM274.481 61.2393V63.1384H276.38V61.2393H274.481ZM278.709 61.2393V63.1384H280.597V61.2393H278.709ZM282.926 61.2393V63.1384H284.825V61.2393H282.926ZM287.154 61.2393V63.1384H289.041V61.2393H287.154ZM291.37 61.2393V63.1384H293.269V61.2393H291.37ZM295.599 61.2393V63.1384H297.498V61.2393H295.599ZM299.815 61.2393V63.1384H301.714V61.2393H299.815ZM304.043 61.2393V63.1384H305.942V61.2393H304.043ZM308.259 61.2393V63.1384H310.159V61.2393H308.259ZM312.488 61.2393V63.1384H314.387V61.2393H312.488ZM316.716 61.2393V63.1384H318.603V61.2393H316.716ZM320.932 61.2393V63.1384H322.831V61.2393H320.932ZM325.161 61.2393V63.1384H327.048V61.2393H325.161ZM329.377 61.2393V63.1384H331.276V61.2393H329.377ZM333.605 61.2393V63.1384H335.504V61.2393H333.605ZM337.821 61.2393V63.1384H339.721V61.2393H337.821ZM342.05 61.2393V63.1384H343.949V61.2393H342.05ZM346.266 61.2393V63.1384H348.165V61.2393H346.266ZM350.494 61.2393V63.1384H352.393V61.2393H350.494ZM354.723 61.2393V63.1384H356.61V61.2393H354.723ZM358.939 61.2393V63.1384H360.838V61.2393H358.939ZM363.167 61.2393V63.1384H365.054V61.2393H363.167ZM367.383 61.2393V63.1384H369.283V61.2393H367.383ZM371.612 61.2393V63.1384H373.511V61.2393H371.612ZM375.828 61.2393V63.1384H377.727V61.2393H375.828ZM380.056 61.2393V63.1384H381.955V61.2393H380.056ZM384.273 61.2393V63.1384H386.184V61.2393H384.273ZM215.369 65.4675V67.3667H217.256V65.4675H215.369ZM219.585 65.4675V67.3667H221.484V65.4675H219.585ZM223.802 65.4675V67.3667H225.701V65.4675H223.802ZM228.03 65.4675V67.3667H229.929V65.4675H228.03ZM232.246 65.4675V67.3667H234.145V65.4675H232.246ZM236.475 65.4675V67.3667H238.374V65.4675H236.475ZM240.703 65.4675V67.3667H242.59V65.4675H240.703ZM244.919 65.4675V67.3667H246.818V65.4675H244.919ZM249.147 65.4675V67.3667H251.035V65.4675H249.147ZM253.364 65.4675V67.3667H255.263V65.4675H253.364ZM257.592 65.4675V67.3667H259.491V65.4675H257.592ZM261.808 65.4675V67.3667H263.707V65.4675H261.808ZM266.037 65.4675V67.3667H267.936V65.4675H266.037ZM270.253 65.4675V67.3667H272.152V65.4675H270.253ZM274.481 65.4675V67.3667H276.38V65.4675H274.481ZM278.709 65.4675V67.3667H280.597V65.4675H278.709ZM282.926 65.4675V67.3667H284.825V65.4675H282.926ZM287.154 65.4675V67.3667H289.041V65.4675H287.154ZM291.37 65.4675V67.3667H293.269V65.4675H291.37ZM295.599 65.4675V67.3667H297.498V65.4675H295.599ZM299.815 65.4675V67.3667H301.714V65.4675H299.815ZM304.043 65.4675V67.3667H305.942V65.4675H304.043ZM308.259 65.4675V67.3667H310.159V65.4675H308.259ZM312.488 65.4675V67.3667H314.387V65.4675H312.488ZM316.716 65.4675V67.3667H318.603V65.4675H316.716ZM320.932 65.4675V67.3667H322.831V65.4675H320.932ZM325.161 65.4675V67.3667H327.048V65.4675H325.161ZM329.377 65.4675V67.3667H331.276V65.4675H329.377ZM333.605 65.4675V67.3667H335.504V65.4675H333.605ZM337.821 65.4675V67.3667H339.721V65.4675H337.821ZM342.05 65.4675V67.3667H343.949V65.4675H342.05ZM346.266 65.4675V67.3667H348.165V65.4675H346.266ZM350.494 65.4675V67.3667H352.393V65.4675H350.494ZM354.723 65.4675V67.3667H356.61V65.4675H354.723ZM358.939 65.4675V67.3667H360.838V65.4675H358.939ZM363.167 65.4675V67.3667H365.054V65.4675H363.167ZM367.383 65.4675V67.3667H369.283V65.4675H367.383ZM371.612 65.4675V67.3667H373.511V65.4675H371.612ZM375.828 65.4675V67.3667H377.727V65.4675H375.828ZM380.056 65.4675V67.3667H381.955V65.4675H380.056ZM384.273 65.4675V67.3667H386.184V65.4675H384.273ZM215.369 69.6958V71.583H217.256V69.6958H215.369ZM219.585 69.6958V71.583H221.484V69.6958H219.585ZM223.802 69.6958V71.583H225.701V69.6958H223.802ZM228.03 69.6958V71.583H229.929V69.6958H228.03ZM232.246 69.6958V71.583H234.145V69.6958H232.246ZM236.475 69.6958V71.583H238.374V69.6958H236.475ZM240.703 69.6958V71.583H242.59V69.6958H240.703ZM244.919 69.6958V71.583H246.818V69.6958H244.919ZM249.147 69.6958V71.583H251.035V69.6958H249.147ZM253.364 69.6958V71.583H255.263V69.6958H253.364ZM257.592 69.6958V71.583H259.491V69.6958H257.592ZM261.808 69.6958V71.583H263.707V69.6958H261.808ZM266.037 69.6958V71.583H267.936V69.6958H266.037ZM270.253 69.6958V71.583H272.152V69.6958H270.253ZM274.481 69.6958V71.583H276.38V69.6958H274.481ZM278.709 69.6958V71.583H280.597V69.6958H278.709ZM282.926 69.6958V71.583H284.825V69.6958H282.926ZM287.154 69.6958V71.583H289.041V69.6958H287.154ZM291.37 69.6958V71.583H293.269V69.6958H291.37ZM295.599 69.6958V71.583H297.498V69.6958H295.599ZM299.815 69.6958V71.583H301.714V69.6958H299.815ZM304.043 69.6958V71.583H305.942V69.6958H304.043ZM308.259 69.6958V71.583H310.159V69.6958H308.259ZM312.488 69.6958V71.583H314.387V69.6958H312.488ZM316.716 69.6958V71.583H318.603V69.6958H316.716ZM320.932 69.6958V71.583H322.831V69.6958H320.932ZM325.161 69.6958V71.583H327.048V69.6958H325.161ZM329.377 69.6958V71.583H331.276V69.6958H329.377ZM333.605 69.6958V71.583H335.504V69.6958H333.605ZM337.821 69.6958V71.583H339.721V69.6958H337.821ZM342.05 69.6958V71.583H343.949V69.6958H342.05ZM346.266 69.6958V71.583H348.165V69.6958H346.266ZM350.494 69.6958V71.583H352.393V69.6958H350.494ZM354.723 69.6958V71.583H356.61V69.6958H354.723ZM358.939 69.6958V71.583H360.838V69.6958H358.939ZM363.167 69.6958V71.583H365.054V69.6958H363.167ZM367.383 69.6958V71.583H369.283V69.6958H367.383ZM371.612 69.6958V71.583H373.511V69.6958H371.612ZM375.828 69.6958V71.583H377.727V69.6958H375.828ZM380.056 69.6958V71.583H381.955V69.6958H380.056ZM384.273 69.6958V71.583H386.184V69.6958H384.273ZM215.369 73.9121V75.8112H217.256V73.9121H215.369ZM219.585 73.9121V75.8112H221.484V73.9121H219.585ZM223.802 73.9121V75.8112H225.701V73.9121H223.802ZM228.03 73.9121V75.8112H229.929V73.9121H228.03ZM232.246 73.9121V75.8112H234.145V73.9121H232.246ZM236.475 73.9121V75.8112H238.374V73.9121H236.475ZM240.703 73.9121V75.8112H242.59V73.9121H240.703ZM244.919 73.9121V75.8112H246.818V73.9121H244.919ZM249.147 73.9121V75.8112H251.035V73.9121H249.147ZM253.364 73.9121V75.8112H255.263V73.9121H253.364ZM257.592 73.9121V75.8112H259.491V73.9121H257.592ZM261.808 73.9121V75.8112H263.707V73.9121H261.808ZM266.037 73.9121V75.8112H267.936V73.9121H266.037ZM270.253 73.9121V75.8112H272.152V73.9121H270.253ZM274.481 73.9121V75.8112H276.38V73.9121H274.481ZM278.709 73.9121V75.8112H280.597V73.9121H278.709ZM282.926 73.9121V75.8112H284.825V73.9121H282.926ZM287.154 73.9121V75.8112H289.041V73.9121H287.154ZM291.37 73.9121V75.8112H293.269V73.9121H291.37ZM295.599 73.9121V75.8112H297.498V73.9121H295.599ZM299.815 73.9121V75.8112H301.714V73.9121H299.815ZM304.043 73.9121V75.8112H305.942V73.9121H304.043ZM308.259 73.9121V75.8112H310.159V73.9121H308.259ZM312.488 73.9121V75.8112H314.387V73.9121H312.488ZM316.716 73.9121V75.8112H318.603V73.9121H316.716ZM320.932 73.9121V75.8112H322.831V73.9121H320.932ZM325.161 73.9121V75.8112H327.048V73.9121H325.161ZM329.377 73.9121V75.8112H331.276V73.9121H329.377ZM333.605 73.9121V75.8112H335.504V73.9121H333.605ZM337.821 73.9121V75.8112H339.721V73.9121H337.821ZM342.05 73.9121V75.8112H343.949V73.9121H342.05ZM346.266 73.9121V75.8112H348.165V73.9121H346.266ZM350.494 73.9121V75.8112H352.393V73.9121H350.494ZM354.723 73.9121V75.8112H356.61V73.9121H354.723ZM358.939 73.9121V75.8112H360.838V73.9121H358.939ZM363.167 73.9121V75.8112H365.054V73.9121H363.167ZM367.383 73.9121V75.8112H369.283V73.9121H367.383ZM371.612 73.9121V75.8112H373.511V73.9121H371.612ZM375.828 73.9121V75.8112H377.727V73.9121H375.828ZM380.056 73.9121V75.8112H381.955V73.9121H380.056ZM384.273 73.9121V75.8112H386.184V73.9121H384.273ZM215.369 78.1404V80.0276H217.256V78.1404H215.369ZM219.585 78.1404V80.0276H221.484V78.1404H219.585ZM223.802 78.1404V80.0276H225.701V78.1404H223.802ZM228.03 78.1404V80.0276H229.929V78.1404H228.03ZM232.246 78.1404V80.0276H234.145V78.1404H232.246ZM236.475 78.1404V80.0276H238.374V78.1404H236.475ZM240.703 78.1404V80.0276H242.59V78.1404H240.703ZM244.919 78.1404V80.0276H246.818V78.1404H244.919ZM249.147 78.1404V80.0276H251.035V78.1404H249.147ZM253.364 78.1404V80.0276H255.263V78.1404H253.364ZM257.592 78.1404V80.0276H259.491V78.1404H257.592ZM261.808 78.1404V80.0276H263.707V78.1404H261.808ZM266.037 78.1404V80.0276H267.936V78.1404H266.037ZM270.253 78.1404V80.0276H272.152V78.1404H270.253ZM274.481 78.1404V80.0276H276.38V78.1404H274.481ZM278.709 78.1404V80.0276H280.597V78.1404H278.709ZM282.926 78.1404V80.0276H284.825V78.1404H282.926ZM287.154 78.1404V80.0276H289.041V78.1404H287.154ZM291.37 78.1404V80.0276H293.269V78.1404H291.37ZM295.599 78.1404V80.0276H297.498V78.1404H295.599ZM299.815 78.1404V80.0276H301.714V78.1404H299.815ZM304.043 78.1404V80.0276H305.942V78.1404H304.043ZM308.259 78.1404V80.0276H310.159V78.1404H308.259ZM312.488 78.1404V80.0276H314.387V78.1404H312.488ZM316.716 78.1404V80.0276H318.603V78.1404H316.716ZM320.932 78.1404V80.0276H322.831V78.1404H320.932ZM325.161 78.1404V80.0276H327.048V78.1404H325.161ZM329.377 78.1404V80.0276H331.276V78.1404H329.377ZM333.605 78.1404V80.0276H335.504V78.1404H333.605ZM337.821 78.1404V80.0276H339.721V78.1404H337.821ZM342.05 78.1404V80.0276H343.949V78.1404H342.05ZM346.266 78.1404V80.0276H348.165V78.1404H346.266ZM350.494 78.1404V80.0276H352.393V78.1404H350.494ZM354.723 78.1404V80.0276H356.61V78.1404H354.723ZM358.939 78.1404V80.0276H360.838V78.1404H358.939ZM363.167 78.1404V80.0276H365.054V78.1404H363.167ZM367.383 78.1404V80.0276H369.283V78.1404H367.383ZM371.612 78.1404V80.0276H373.511V78.1404H371.612ZM375.828 78.1404V80.0276H377.727V78.1404H375.828ZM380.056 78.1404V80.0276H381.955V78.1404H380.056ZM384.273 78.1404V80.0276H386.184V78.1404H384.273ZM215.369 82.3567V84.2558H217.256V82.3567H215.369ZM219.585 82.3567V84.2558H221.484V82.3567H219.585ZM223.802 82.3567V84.2558H225.701V82.3567H223.802ZM228.03 82.3567V84.2558H229.929V82.3567H228.03ZM232.246 82.3567V84.2558H234.145V82.3567H232.246ZM236.475 82.3567V84.2558H238.374V82.3567H236.475ZM240.703 82.3567V84.2558H242.59V82.3567H240.703ZM244.919 82.3567V84.2558H246.818V82.3567H244.919ZM249.147 82.3567V84.2558H251.035V82.3567H249.147ZM253.364 82.3567V84.2558H255.263V82.3567H253.364ZM257.592 82.3567V84.2558H259.491V82.3567H257.592ZM261.808 82.3567V84.2558H263.707V82.3567H261.808ZM266.037 82.3567V84.2558H267.936V82.3567H266.037ZM270.253 82.3567V84.2558H272.152V82.3567H270.253ZM274.481 82.3567V84.2558H276.38V82.3567H274.481ZM278.709 82.3567V84.2558H280.597V82.3567H278.709ZM282.926 82.3567V84.2558H284.825V82.3567H282.926ZM287.154 82.3567V84.2558H289.041V82.3567H287.154ZM291.37 82.3567V84.2558H293.269V82.3567H291.37ZM295.599 82.3567V84.2558H297.498V82.3567H295.599ZM299.815 82.3567V84.2558H301.714V82.3567H299.815ZM304.043 82.3567V84.2558H305.942V82.3567H304.043ZM308.259 82.3567V84.2558H310.159V82.3567H308.259ZM312.488 82.3567V84.2558H314.387V82.3567H312.488ZM316.716 82.3567V84.2558H318.603V82.3567H316.716ZM320.932 82.3567V84.2558H322.831V82.3567H320.932ZM325.161 82.3567V84.2558H327.048V82.3567H325.161ZM329.377 82.3567V84.2558H331.276V82.3567H329.377ZM333.605 82.3567V84.2558H335.504V82.3567H333.605ZM337.821 82.3567V84.2558H339.721V82.3567H337.821ZM342.05 82.3567V84.2558H343.949V82.3567H342.05ZM346.266 82.3567V84.2558H348.165V82.3567H346.266ZM350.494 82.3567V84.2558H352.393V82.3567H350.494ZM354.723 82.3567V84.2558H356.61V82.3567H354.723ZM358.939 82.3567V84.2558H360.838V82.3567H358.939ZM363.167 82.3567V84.2558H365.054V82.3567H363.167ZM367.383 82.3567V84.2558H369.283V82.3567H367.383ZM371.612 82.3567V84.2558H373.511V82.3567H371.612ZM375.828 82.3567V84.2558H377.727V82.3567H375.828ZM380.056 82.3567V84.2558H381.955V82.3567H380.056ZM384.273 82.3567V84.2558H386.184V82.3567H384.273ZM215.369 86.5849V88.4841H217.256V86.5849H215.369ZM219.585 86.5849V88.4841H221.484V86.5849H219.585ZM223.802 86.5849V88.4841H225.701V86.5849H223.802ZM228.03 86.5849V88.4841H229.929V86.5849H228.03ZM232.246 86.5849V88.4841H234.145V86.5849H232.246ZM236.475 86.5849V88.4841H238.374V86.5849H236.475ZM240.703 86.5849V88.4841H242.59V86.5849H240.703ZM244.919 86.5849V88.4841H246.818V86.5849H244.919ZM249.147 86.5849V88.4841H251.035V86.5849H249.147ZM253.364 86.5849V88.4841H255.263V86.5849H253.364ZM257.592 86.5849V88.4841H259.491V86.5849H257.592ZM261.808 86.5849V88.4841H263.707V86.5849H261.808ZM266.037 86.5849V88.4841H267.936V86.5849H266.037ZM270.253 86.5849V88.4841H272.152V86.5849H270.253ZM274.481 86.5849V88.4841H276.38V86.5849H274.481ZM278.709 86.5849V88.4841H280.597V86.5849H278.709ZM282.926 86.5849V88.4841H284.825V86.5849H282.926ZM287.154 86.5849V88.4841H289.041V86.5849H287.154ZM291.37 86.5849V88.4841H293.269V86.5849H291.37ZM295.599 86.5849V88.4841H297.498V86.5849H295.599ZM299.815 86.5849V88.4841H301.714V86.5849H299.815ZM304.043 86.5849V88.4841H305.942V86.5849H304.043ZM308.259 86.5849V88.4841H310.159V86.5849H308.259ZM312.488 86.5849V88.4841H314.387V86.5849H312.488ZM316.716 86.5849V88.4841H318.603V86.5849H316.716ZM320.932 86.5849V88.4841H322.831V86.5849H320.932ZM325.161 86.5849V88.4841H327.048V86.5849H325.161ZM329.377 86.5849V88.4841H331.276V86.5849H329.377ZM333.605 86.5849V88.4841H335.504V86.5849H333.605ZM337.821 86.5849V88.4841H339.721V86.5849H337.821ZM342.05 86.5849V88.4841H343.949V86.5849H342.05ZM346.266 86.5849V88.4841H348.165V86.5849H346.266ZM350.494 86.5849V88.4841H352.393V86.5849H350.494ZM354.723 86.5849V88.4841H356.61V86.5849H354.723ZM358.939 86.5849V88.4841H360.838V86.5849H358.939ZM363.167 86.5849V88.4841H365.054V86.5849H363.167ZM367.383 86.5849V88.4841H369.283V86.5849H367.383ZM371.612 86.5849V88.4841H373.511V86.5849H371.612ZM375.828 86.5849V88.4841H377.727V86.5849H375.828ZM380.056 86.5849V88.4841H381.955V86.5849H380.056ZM384.273 86.5849V88.4841H386.184V86.5849H384.273ZM215.369 90.8013V92.7004H217.256V90.8013H215.369ZM219.585 90.8013V92.7004H221.484V90.8013H219.585ZM223.802 90.8013V92.7004H225.701V90.8013H223.802ZM228.03 90.8013V92.7004H229.929V90.8013H228.03ZM232.246 90.8013V92.7004H234.145V90.8013H232.246ZM236.475 90.8013V92.7004H238.374V90.8013H236.475ZM240.703 90.8013V92.7004H242.59V90.8013H240.703ZM244.919 90.8013V92.7004H246.818V90.8013H244.919ZM249.147 90.8013V92.7004H251.035V90.8013H249.147ZM253.364 90.8013V92.7004H255.263V90.8013H253.364ZM257.592 90.8013V92.7004H259.491V90.8013H257.592ZM261.808 90.8013V92.7004H263.707V90.8013H261.808ZM266.037 90.8013V92.7004H267.936V90.8013H266.037ZM270.253 90.8013V92.7004H272.152V90.8013H270.253ZM274.481 90.8013V92.7004H276.38V90.8013H274.481ZM278.709 90.8013V92.7004H280.597V90.8013H278.709ZM282.926 90.8013V92.7004H284.825V90.8013H282.926ZM287.154 90.8013V92.7004H289.041V90.8013H287.154ZM291.37 90.8013V92.7004H293.269V90.8013H291.37ZM295.599 90.8013V92.7004H297.498V90.8013H295.599ZM299.815 90.8013V92.7004H301.714V90.8013H299.815ZM304.043 90.8013V92.7004H305.942V90.8013H304.043ZM308.259 90.8013V92.7004H310.159V90.8013H308.259ZM312.488 90.8013V92.7004H314.387V90.8013H312.488ZM316.716 90.8013V92.7004H318.603V90.8013H316.716ZM320.932 90.8013V92.7004H322.831V90.8013H320.932ZM325.161 90.8013V92.7004H327.048V90.8013H325.161ZM329.377 90.8013V92.7004H331.276V90.8013H329.377ZM333.605 90.8013V92.7004H335.504V90.8013H333.605ZM337.821 90.8013V92.7004H339.721V90.8013H337.821ZM342.05 90.8013V92.7004H343.949V90.8013H342.05ZM346.266 90.8013V92.7004H348.165V90.8013H346.266ZM350.494 90.8013V92.7004H352.393V90.8013H350.494ZM354.723 90.8013V92.7004H356.61V90.8013H354.723ZM358.939 90.8013V92.7004H360.838V90.8013H358.939ZM363.167 90.8013V92.7004H365.054V90.8013H363.167ZM367.383 90.8013V92.7004H369.283V90.8013H367.383ZM371.612 90.8013V92.7004H373.511V90.8013H371.612ZM375.828 90.8013V92.7004H377.727V90.8013H375.828ZM380.056 90.8013V92.7004H381.955V90.8013H380.056ZM384.273 90.8013V92.7004H386.184V90.8013H384.273ZM215.369 95.0295V96.9287H217.256V95.0295H215.369ZM219.585 95.0295V96.9287H221.484V95.0295H219.585ZM223.802 95.0295V96.9287H225.701V95.0295H223.802ZM228.03 95.0295V96.9287H229.929V95.0295H228.03ZM232.246 95.0295V96.9287H234.145V95.0295H232.246ZM236.475 95.0295V96.9287H238.374V95.0295H236.475ZM240.703 95.0295V96.9287H242.59V95.0295H240.703ZM244.919 95.0295V96.9287H246.818V95.0295H244.919ZM249.147 95.0295V96.9287H251.035V95.0295H249.147ZM253.364 95.0295V96.9287H255.263V95.0295H253.364ZM257.592 95.0295V96.9287H259.491V95.0295H257.592ZM261.808 95.0295V96.9287H263.707V95.0295H261.808ZM266.037 95.0295V96.9287H267.936V95.0295H266.037ZM270.253 95.0295V96.9287H272.152V95.0295H270.253ZM274.481 95.0295V96.9287H276.38V95.0295H274.481ZM278.709 95.0295V96.9287H280.597V95.0295H278.709ZM282.926 95.0295V96.9287H284.825V95.0295H282.926ZM287.154 95.0295V96.9287H289.041V95.0295H287.154ZM291.37 95.0295V96.9287H293.269V95.0295H291.37ZM295.599 95.0295V96.9287H297.498V95.0295H295.599ZM299.815 95.0295V96.9287H301.714V95.0295H299.815ZM304.043 95.0295V96.9287H305.942V95.0295H304.043ZM308.259 95.0295V96.9287H310.159V95.0295H308.259ZM312.488 95.0295V96.9287H314.387V95.0295H312.488ZM316.716 95.0295V96.9287H318.603V95.0295H316.716ZM320.932 95.0295V96.9287H322.831V95.0295H320.932ZM325.161 95.0295V96.9287H327.048V95.0295H325.161ZM329.377 95.0295V96.9287H331.276V95.0295H329.377ZM333.605 95.0295V96.9287H335.504V95.0295H333.605ZM337.821 95.0295V96.9287H339.721V95.0295H337.821ZM342.05 95.0295V96.9287H343.949V95.0295H342.05ZM346.266 95.0295V96.9287H348.165V95.0295H346.266ZM350.494 95.0295V96.9287H352.393V95.0295H350.494ZM354.723 95.0295V96.9287H356.61V95.0295H354.723ZM358.939 95.0295V96.9287H360.838V95.0295H358.939ZM363.167 95.0295V96.9287H365.054V95.0295H363.167ZM367.383 95.0295V96.9287H369.283V95.0295H367.383ZM371.612 95.0295V96.9287H373.511V95.0295H371.612ZM375.828 95.0295V96.9287H377.727V95.0295H375.828ZM380.056 95.0295V96.9287H381.955V95.0295H380.056ZM384.273 95.0295V96.9287H386.184V95.0295H384.273ZM215.369 99.2459V101.145H217.256V99.2459H215.369ZM219.585 99.2459V101.145H221.484V99.2459H219.585ZM223.802 99.2459V101.145H225.701V99.2459H223.802ZM228.03 99.2459V101.145H229.929V99.2459H228.03ZM232.246 99.2459V101.145H234.145V99.2459H232.246ZM236.475 99.2459V101.145H238.374V99.2459H236.475ZM240.703 99.2459V101.145H242.59V99.2459H240.703ZM244.919 99.2459V101.145H246.818V99.2459H244.919ZM249.147 99.2459V101.145H251.035V99.2459H249.147ZM253.364 99.2459V101.145H255.263V99.2459H253.364ZM257.592 99.2459V101.145H259.491V99.2459H257.592ZM261.808 99.2459V101.145H263.707V99.2459H261.808ZM266.037 99.2459V101.145H267.936V99.2459H266.037ZM270.253 99.2459V101.145H272.152V99.2459H270.253ZM274.481 99.2459V101.145H276.38V99.2459H274.481ZM278.709 99.2459V101.145H280.597V99.2459H278.709ZM282.926 99.2459V101.145H284.825V99.2459H282.926ZM287.154 99.2459V101.145H289.041V99.2459H287.154ZM291.37 99.2459V101.145H293.269V99.2459H291.37ZM295.599 99.2459V101.145H297.498V99.2459H295.599ZM299.815 99.2459V101.145H301.714V99.2459H299.815ZM304.043 99.2459V101.145H305.942V99.2459H304.043ZM308.259 99.2459V101.145H310.159V99.2459H308.259ZM312.488 99.2459V101.145H314.387V99.2459H312.488ZM316.716 99.2459V101.145H318.603V99.2459H316.716ZM320.932 99.2459V101.145H322.831V99.2459H320.932ZM325.161 99.2459V101.145H327.048V99.2459H325.161ZM329.377 99.2459V101.145H331.276V99.2459H329.377ZM333.605 99.2459V101.145H335.504V99.2459H333.605ZM337.821 99.2459V101.145H339.721V99.2459H337.821ZM342.05 99.2459V101.145H343.949V99.2459H342.05ZM346.266 99.2459V101.145H348.165V99.2459H346.266ZM350.494 99.2459V101.145H352.393V99.2459H350.494ZM354.723 99.2459V101.145H356.61V99.2459H354.723ZM358.939 99.2459V101.145H360.838V99.2459H358.939ZM363.167 99.2459V101.145H365.054V99.2459H363.167ZM367.383 99.2459V101.145H369.283V99.2459H367.383ZM371.612 99.2459V101.145H373.511V99.2459H371.612ZM375.828 99.2459V101.145H377.727V99.2459H375.828ZM380.056 99.2459V101.145H381.955V99.2459H380.056ZM384.273 99.2459V101.145H386.184V99.2459H384.273ZM215.369 103.474V105.373H217.256V103.474H215.369ZM219.585 103.474V105.373H221.484V103.474H219.585ZM223.802 103.474V105.373H225.701V103.474H223.802ZM228.03 103.474V105.373H229.929V103.474H228.03ZM232.246 103.474V105.373H234.145V103.474H232.246ZM236.475 103.474V105.373H238.374V103.474H236.475ZM240.703 103.474V105.373H242.59V103.474H240.703ZM244.919 103.474V105.373H246.818V103.474H244.919ZM249.147 103.474V105.373H251.035V103.474H249.147ZM253.364 103.474V105.373H255.263V103.474H253.364ZM257.592 103.474V105.373H259.491V103.474H257.592ZM261.808 103.474V105.373H263.707V103.474H261.808ZM266.037 103.474V105.373H267.936V103.474H266.037ZM270.253 103.474V105.373H272.152V103.474H270.253ZM274.481 103.474V105.373H276.38V103.474H274.481ZM278.709 103.474V105.373H280.597V103.474H278.709ZM282.926 103.474V105.373H284.825V103.474H282.926ZM287.154 103.474V105.373H289.041V103.474H287.154ZM291.37 103.474V105.373H293.269V103.474H291.37ZM295.599 103.474V105.373H297.498V103.474H295.599ZM299.815 103.474V105.373H301.714V103.474H299.815ZM304.043 103.474V105.373H305.942V103.474H304.043ZM308.259 103.474V105.373H310.159V103.474H308.259ZM312.488 103.474V105.373H314.387V103.474H312.488ZM316.716 103.474V105.373H318.603V103.474H316.716ZM320.932 103.474V105.373H322.831V103.474H320.932ZM325.161 103.474V105.373H327.048V103.474H325.161ZM329.377 103.474V105.373H331.276V103.474H329.377ZM333.605 103.474V105.373H335.504V103.474H333.605ZM337.821 103.474V105.373H339.721V103.474H337.821ZM342.05 103.474V105.373H343.949V103.474H342.05ZM346.266 103.474V105.373H348.165V103.474H346.266ZM350.494 103.474V105.373H352.393V103.474H350.494ZM354.723 103.474V105.373H356.61V103.474H354.723ZM358.939 103.474V105.373H360.838V103.474H358.939ZM363.167 103.474V105.373H365.054V103.474H363.167ZM367.383 103.474V105.373H369.283V103.474H367.383ZM371.612 103.474V105.373H373.511V103.474H371.612ZM375.828 103.474V105.373H377.727V103.474H375.828ZM380.056 103.474V105.373H381.955V103.474H380.056ZM384.273 103.474V105.373H386.184V103.474H384.273ZM215.369 107.702V109.59H217.256V107.702H215.369ZM219.585 107.702V109.59H221.484V107.702H219.585ZM223.802 107.702V109.59H225.701V107.702H223.802ZM228.03 107.702V109.59H229.929V107.702H228.03ZM232.246 107.702V109.59H234.145V107.702H232.246ZM236.475 107.702V109.59H238.374V107.702H236.475ZM240.703 107.702V109.59H242.59V107.702H240.703ZM244.919 107.702V109.59H246.818V107.702H244.919ZM249.147 107.702V109.59H251.035V107.702H249.147ZM253.364 107.702V109.59H255.263V107.702H253.364ZM257.592 107.702V109.59H259.491V107.702H257.592ZM261.808 107.702V109.59H263.707V107.702H261.808ZM266.037 107.702V109.59H267.936V107.702H266.037ZM270.253 107.702V109.59H272.152V107.702H270.253ZM274.481 107.702V109.59H276.38V107.702H274.481ZM278.709 107.702V109.59H280.597V107.702H278.709ZM282.926 107.702V109.59H284.825V107.702H282.926ZM287.154 107.702V109.59H289.041V107.702H287.154ZM291.37 107.702V109.59H293.269V107.702H291.37ZM295.599 107.702V109.59H297.498V107.702H295.599ZM299.815 107.702V109.59H301.714V107.702H299.815ZM304.043 107.702V109.59H305.942V107.702H304.043ZM308.259 107.702V109.59H310.159V107.702H308.259ZM312.488 107.702V109.59H314.387V107.702H312.488ZM316.716 107.702V109.59H318.603V107.702H316.716ZM320.932 107.702V109.59H322.831V107.702H320.932ZM325.161 107.702V109.59H327.048V107.702H325.161ZM329.377 107.702V109.59H331.276V107.702H329.377ZM333.605 107.702V109.59H335.504V107.702H333.605ZM337.821 107.702V109.59H339.721V107.702H337.821ZM342.05 107.702V109.59H343.949V107.702H342.05ZM346.266 107.702V109.59H348.165V107.702H346.266ZM350.494 107.702V109.59H352.393V107.702H350.494ZM354.723 107.702V109.59H356.61V107.702H354.723ZM358.939 107.702V109.59H360.838V107.702H358.939ZM363.167 107.702V109.59H365.054V107.702H363.167ZM367.383 107.702V109.59H369.283V107.702H367.383ZM371.612 107.702V109.59H373.511V107.702H371.612ZM375.828 107.702V109.59H377.727V107.702H375.828ZM380.056 107.702V109.59H381.955V107.702H380.056ZM384.273 107.702V109.59H386.184V107.702H384.273ZM215.369 111.919V113.818H217.256V111.919H215.369ZM219.585 111.919V113.818H221.484V111.919H219.585ZM223.802 111.919V113.818H225.701V111.919H223.802ZM228.03 111.919V113.818H229.929V111.919H228.03ZM232.246 111.919V113.818H234.145V111.919H232.246ZM236.475 111.919V113.818H238.374V111.919H236.475ZM240.703 111.919V113.818H242.59V111.919H240.703ZM244.919 111.919V113.818H246.818V111.919H244.919ZM249.147 111.919V113.818H251.035V111.919H249.147ZM253.364 111.919V113.818H255.263V111.919H253.364ZM257.592 111.919V113.818H259.491V111.919H257.592ZM261.808 111.919V113.818H263.707V111.919H261.808ZM266.037 111.919V113.818H267.936V111.919H266.037ZM270.253 111.919V113.818H272.152V111.919H270.253ZM274.481 111.919V113.818H276.38V111.919H274.481ZM278.709 111.919V113.818H280.597V111.919H278.709ZM282.926 111.919V113.818H284.825V111.919H282.926ZM287.154 111.919V113.818H289.041V111.919H287.154ZM291.37 111.919V113.818H293.269V111.919H291.37ZM295.599 111.919V113.818H297.498V111.919H295.599ZM299.815 111.919V113.818H301.714V111.919H299.815ZM304.043 111.919V113.818H305.942V111.919H304.043ZM308.259 111.919V113.818H310.159V111.919H308.259ZM312.488 111.919V113.818H314.387V111.919H312.488ZM316.716 111.919V113.818H318.603V111.919H316.716ZM320.932 111.919V113.818H322.831V111.919H320.932ZM325.161 111.919V113.818H327.048V111.919H325.161ZM329.377 111.919V113.818H331.276V111.919H329.377ZM333.605 111.919V113.818H335.504V111.919H333.605ZM337.821 111.919V113.818H339.721V111.919H337.821ZM342.05 111.919V113.818H343.949V111.919H342.05ZM346.266 111.919V113.818H348.165V111.919H346.266ZM350.494 111.919V113.818H352.393V111.919H350.494ZM354.723 111.919V113.818H356.61V111.919H354.723ZM358.939 111.919V113.818H360.838V111.919H358.939ZM363.167 111.919V113.818H365.054V111.919H363.167ZM367.383 111.919V113.818H369.283V111.919H367.383ZM371.612 111.919V113.818H373.511V111.919H371.612ZM375.828 111.919V113.818H377.727V111.919H375.828ZM380.056 111.919V113.818H381.955V111.919H380.056ZM384.273 111.919V113.818H386.184V111.919H384.273ZM215.369 116.147V118.034H217.256V116.147H215.369ZM219.585 116.147V118.034H221.484V116.147H219.585ZM223.802 116.147V118.034H225.701V116.147H223.802ZM228.03 116.147V118.034H229.929V116.147H228.03ZM232.246 116.147V118.034H234.145V116.147H232.246ZM236.475 116.147V118.034H238.374V116.147H236.475ZM240.703 116.147V118.034H242.59V116.147H240.703ZM244.919 116.147V118.034H246.818V116.147H244.919ZM249.147 116.147V118.034H251.035V116.147H249.147ZM253.364 116.147V118.034H255.263V116.147H253.364ZM257.592 116.147V118.034H259.491V116.147H257.592ZM261.808 116.147V118.034H263.707V116.147H261.808ZM266.037 116.147V118.034H267.936V116.147H266.037ZM270.253 116.147V118.034H272.152V116.147H270.253ZM274.481 116.147V118.034H276.38V116.147H274.481ZM278.709 116.147V118.034H280.597V116.147H278.709ZM282.926 116.147V118.034H284.825V116.147H282.926ZM287.154 116.147V118.034H289.041V116.147H287.154ZM291.37 116.147V118.034H293.269V116.147H291.37ZM295.599 116.147V118.034H297.498V116.147H295.599ZM299.815 116.147V118.034H301.714V116.147H299.815ZM304.043 116.147V118.034H305.942V116.147H304.043ZM308.259 116.147V118.034H310.159V116.147H308.259ZM312.488 116.147V118.034H314.387V116.147H312.488ZM316.716 116.147V118.034H318.603V116.147H316.716ZM320.932 116.147V118.034H322.831V116.147H320.932ZM325.161 116.147V118.034H327.048V116.147H325.161ZM329.377 116.147V118.034H331.276V116.147H329.377ZM333.605 116.147V118.034H335.504V116.147H333.605ZM337.821 116.147V118.034H339.721V116.147H337.821ZM342.05 116.147V118.034H343.949V116.147H342.05ZM346.266 116.147V118.034H348.165V116.147H346.266ZM350.494 116.147V118.034H352.393V116.147H350.494ZM354.723 116.147V118.034H356.61V116.147H354.723ZM358.939 116.147V118.034H360.838V116.147H358.939ZM363.167 116.147V118.034H365.054V116.147H363.167ZM367.383 116.147V118.034H369.283V116.147H367.383ZM371.612 116.147V118.034H373.511V116.147H371.612ZM375.828 116.147V118.034H377.727V116.147H375.828ZM380.056 116.147V118.034H381.955V116.147H380.056ZM384.273 116.147V118.034H386.184V116.147H384.273ZM215.369 120.363V122.262H217.256V120.363H215.369ZM219.585 120.363V122.262H221.484V120.363H219.585ZM223.802 120.363V122.262H225.701V120.363H223.802ZM228.03 120.363V122.262H229.929V120.363H228.03ZM232.246 120.363V122.262H234.145V120.363H232.246ZM236.475 120.363V122.262H238.374V120.363H236.475ZM240.703 120.363V122.262H242.59V120.363H240.703ZM244.919 120.363V122.262H246.818V120.363H244.919ZM249.147 120.363V122.262H251.035V120.363H249.147ZM253.364 120.363V122.262H255.263V120.363H253.364ZM257.592 120.363V122.262H259.491V120.363H257.592ZM261.808 120.363V122.262H263.707V120.363H261.808ZM266.037 120.363V122.262H267.936V120.363H266.037ZM270.253 120.363V122.262H272.152V120.363H270.253ZM274.481 120.363V122.262H276.38V120.363H274.481ZM278.709 120.363V122.262H280.597V120.363H278.709ZM282.926 120.363V122.262H284.825V120.363H282.926ZM287.154 120.363V122.262H289.041V120.363H287.154ZM291.37 120.363V122.262H293.269V120.363H291.37ZM295.599 120.363V122.262H297.498V120.363H295.599ZM299.815 120.363V122.262H301.714V120.363H299.815ZM304.043 120.363V122.262H305.942V120.363H304.043ZM308.259 120.363V122.262H310.159V120.363H308.259ZM312.488 120.363V122.262H314.387V120.363H312.488ZM316.716 120.363V122.262H318.603V120.363H316.716ZM320.932 120.363V122.262H322.831V120.363H320.932ZM325.161 120.363V122.262H327.048V120.363H325.161ZM329.377 120.363V122.262H331.276V120.363H329.377ZM333.605 120.363V122.262H335.504V120.363H333.605ZM337.821 120.363V122.262H339.721V120.363H337.821ZM342.05 120.363V122.262H343.949V120.363H342.05ZM346.266 120.363V122.262H348.165V120.363H346.266ZM350.494 120.363V122.262H352.393V120.363H350.494ZM354.723 120.363V122.262H356.61V120.363H354.723ZM358.939 120.363V122.262H360.838V120.363H358.939ZM363.167 120.363V122.262H365.054V120.363H363.167ZM367.383 120.363V122.262H369.283V120.363H367.383ZM371.612 120.363V122.262H373.511V120.363H371.612ZM375.828 120.363V122.262H377.727V120.363H375.828ZM380.056 120.363V122.262H381.955V120.363H380.056ZM384.273 120.363V122.262H386.184V120.363H384.273ZM215.369 124.592V126.491H217.256V124.592H215.369ZM219.585 124.592V126.491H221.484V124.592H219.585ZM223.802 124.592V126.491H225.701V124.592H223.802ZM228.03 124.592V126.491H229.929V124.592H228.03ZM232.246 124.592V126.491H234.145V124.592H232.246ZM236.475 124.592V126.491H238.374V124.592H236.475ZM240.703 124.592V126.491H242.59V124.592H240.703ZM244.919 124.592V126.491H246.818V124.592H244.919ZM249.147 124.592V126.491H251.035V124.592H249.147ZM253.364 124.592V126.491H255.263V124.592H253.364ZM257.592 124.592V126.491H259.491V124.592H257.592ZM261.808 124.592V126.491H263.707V124.592H261.808ZM266.037 124.592V126.491H267.936V124.592H266.037ZM270.253 124.592V126.491H272.152V124.592H270.253ZM274.481 124.592V126.491H276.38V124.592H274.481ZM278.709 124.592V126.491H280.597V124.592H278.709ZM282.926 124.592V126.491H284.825V124.592H282.926ZM287.154 124.592V126.491H289.041V124.592H287.154ZM291.37 124.592V126.491H293.269V124.592H291.37ZM295.599 124.592V126.491H297.498V124.592H295.599ZM299.815 124.592V126.491H301.714V124.592H299.815ZM304.043 124.592V126.491H305.942V124.592H304.043ZM308.259 124.592V126.491H310.159V124.592H308.259ZM312.488 124.592V126.491H314.387V124.592H312.488ZM316.716 124.592V126.491H318.603V124.592H316.716ZM320.932 124.592V126.491H322.831V124.592H320.932ZM325.161 124.592V126.491H327.048V124.592H325.161ZM329.377 124.592V126.491H331.276V124.592H329.377ZM333.605 124.592V126.491H335.504V124.592H333.605ZM337.821 124.592V126.491H339.721V124.592H337.821ZM342.05 124.592V126.491H343.949V124.592H342.05ZM346.266 124.592V126.491H348.165V124.592H346.266ZM350.494 124.592V126.491H352.393V124.592H350.494ZM354.723 124.592V126.491H356.61V124.592H354.723ZM358.939 124.592V126.491H360.838V124.592H358.939ZM363.167 124.592V126.491H365.054V124.592H363.167ZM367.383 124.592V126.491H369.283V124.592H367.383ZM371.612 124.592V126.491H373.511V124.592H371.612ZM375.828 124.592V126.491H377.727V124.592H375.828ZM380.056 124.592V126.491H381.955V124.592H380.056ZM384.273 124.592V126.491H386.184V124.592H384.273ZM215.369 128.808V130.707H217.256V128.808H215.369ZM219.585 128.808V130.707H221.484V128.808H219.585ZM223.802 128.808V130.707H225.701V128.808H223.802ZM228.03 128.808V130.707H229.929V128.808H228.03ZM232.246 128.808V130.707H234.145V128.808H232.246ZM236.475 128.808V130.707H238.374V128.808H236.475ZM240.703 128.808V130.707H242.59V128.808H240.703ZM244.919 128.808V130.707H246.818V128.808H244.919ZM249.147 128.808V130.707H251.035V128.808H249.147ZM253.364 128.808V130.707H255.263V128.808H253.364ZM257.592 128.808V130.707H259.491V128.808H257.592ZM261.808 128.808V130.707H263.707V128.808H261.808ZM266.037 128.808V130.707H267.936V128.808H266.037ZM270.253 128.808V130.707H272.152V128.808H270.253ZM274.481 128.808V130.707H276.38V128.808H274.481ZM278.709 128.808V130.707H280.597V128.808H278.709ZM282.926 128.808V130.707H284.825V128.808H282.926ZM287.154 128.808V130.707H289.041V128.808H287.154ZM291.37 128.808V130.707H293.269V128.808H291.37ZM295.599 128.808V130.707H297.498V128.808H295.599ZM299.815 128.808V130.707H301.714V128.808H299.815ZM304.043 128.808V130.707H305.942V128.808H304.043ZM308.259 128.808V130.707H310.159V128.808H308.259ZM312.488 128.808V130.707H314.387V128.808H312.488ZM316.716 128.808V130.707H318.603V128.808H316.716ZM320.932 128.808V130.707H322.831V128.808H320.932ZM325.161 128.808V130.707H327.048V128.808H325.161ZM329.377 128.808V130.707H331.276V128.808H329.377ZM333.605 128.808V130.707H335.504V128.808H333.605ZM337.821 128.808V130.707H339.721V128.808H337.821ZM342.05 128.808V130.707H343.949V128.808H342.05ZM346.266 128.808V130.707H348.165V128.808H346.266ZM350.494 128.808V130.707H352.393V128.808H350.494ZM354.723 128.808V130.707H356.61V128.808H354.723ZM358.939 128.808V130.707H360.838V128.808H358.939ZM363.167 128.808V130.707H365.054V128.808H363.167ZM367.383 128.808V130.707H369.283V128.808H367.383ZM371.612 128.808V130.707H373.511V128.808H371.612ZM375.828 128.808V130.707H377.727V128.808H375.828ZM380.056 128.808V130.707H381.955V128.808H380.056ZM384.273 128.808V130.707H386.184V128.808H384.273ZM215.369 133.036V134.935H217.256V133.036H215.369ZM219.585 133.036V134.935H221.484V133.036H219.585ZM223.802 133.036V134.935H225.701V133.036H223.802ZM228.03 133.036V134.935H229.929V133.036H228.03ZM232.246 133.036V134.935H234.145V133.036H232.246ZM236.475 133.036V134.935H238.374V133.036H236.475ZM240.703 133.036V134.935H242.59V133.036H240.703ZM244.919 133.036V134.935H246.818V133.036H244.919ZM249.147 133.036V134.935H251.035V133.036H249.147ZM253.364 133.036V134.935H255.263V133.036H253.364ZM257.592 133.036V134.935H259.491V133.036H257.592ZM261.808 133.036V134.935H263.707V133.036H261.808ZM266.037 133.036V134.935H267.936V133.036H266.037ZM270.253 133.036V134.935H272.152V133.036H270.253ZM274.481 133.036V134.935H276.38V133.036H274.481ZM278.709 133.036V134.935H280.597V133.036H278.709ZM282.926 133.036V134.935H284.825V133.036H282.926ZM287.154 133.036V134.935H289.041V133.036H287.154ZM291.37 133.036V134.935H293.269V133.036H291.37ZM295.599 133.036V134.935H297.498V133.036H295.599ZM299.815 133.036V134.935H301.714V133.036H299.815ZM304.043 133.036V134.935H305.942V133.036H304.043ZM308.259 133.036V134.935H310.159V133.036H308.259ZM312.488 133.036V134.935H314.387V133.036H312.488ZM316.716 133.036V134.935H318.603V133.036H316.716ZM320.932 133.036V134.935H322.831V133.036H320.932ZM325.161 133.036V134.935H327.048V133.036H325.161ZM329.377 133.036V134.935H331.276V133.036H329.377ZM333.605 133.036V134.935H335.504V133.036H333.605ZM337.821 133.036V134.935H339.721V133.036H337.821ZM342.05 133.036V134.935H343.949V133.036H342.05ZM346.266 133.036V134.935H348.165V133.036H346.266ZM350.494 133.036V134.935H352.393V133.036H350.494ZM354.723 133.036V134.935H356.61V133.036H354.723ZM358.939 133.036V134.935H360.838V133.036H358.939ZM363.167 133.036V134.935H365.054V133.036H363.167ZM367.383 133.036V134.935H369.283V133.036H367.383ZM371.612 133.036V134.935H373.511V133.036H371.612ZM375.828 133.036V134.935H377.727V133.036H375.828ZM380.056 133.036V134.935H381.955V133.036H380.056ZM384.273 133.036V134.935H386.184V133.036H384.273ZM216.05 137.252C216.418 137.693 216.824 138.107 217.256 138.483V137.252H216.05ZM219.585 137.252V139.152H221.484V137.252H219.585ZM223.802 137.252V139.152H225.701V137.252H223.802ZM228.03 137.252V139.152H229.929V137.252H228.03ZM232.246 137.252V139.152H234.145V137.252H232.246ZM236.475 137.252V139.152H238.374V137.252H236.475ZM240.703 137.252V139.152H242.59V137.252H240.703ZM244.919 137.252V139.152H246.818V137.252H244.919ZM249.147 137.252V139.152H251.035V137.252H249.147ZM253.364 137.252V139.152H255.263V137.252H253.364ZM257.592 137.252V139.152H259.491V137.252H257.592ZM261.808 137.252V139.152H263.707V137.252H261.808ZM266.037 137.252V139.152H267.936V137.252H266.037ZM270.253 137.252V139.152H272.152V137.252H270.253ZM274.481 137.252V139.152H276.38V137.252H274.481ZM278.709 137.252V139.152H280.597V137.252H278.709ZM282.926 137.252V139.152H284.825V137.252H282.926ZM287.154 137.252V139.152H289.041V137.252H287.154ZM291.37 137.252V139.152H293.269V137.252H291.37ZM295.599 137.252V139.152H297.498V137.252H295.599ZM299.815 137.252V139.152H301.714V137.252H299.815ZM304.043 137.252V139.152H305.942V137.252H304.043ZM308.259 137.252V139.152H310.159V137.252H308.259ZM312.488 137.252V139.152H314.387V137.252H312.488ZM316.716 137.252V139.152H318.603V137.252H316.716ZM320.932 137.252V139.152H322.831V137.252H320.932ZM325.161 137.252V139.152H327.048V137.252H325.161ZM329.377 137.252V139.152H331.276V137.252H329.377ZM333.605 137.252V139.152H335.504V137.252H333.605ZM337.821 137.252V139.152H339.721V137.252H337.821ZM342.05 137.252V139.152H343.949V137.252H342.05ZM346.266 137.252V139.152H348.165V137.252H346.266ZM350.494 137.252V139.152H352.393V137.252H350.494ZM354.723 137.252V139.152H356.61V137.252H354.723ZM358.939 137.252V139.152H360.838V137.252H358.939ZM363.167 137.252V139.152H365.054V137.252H363.167ZM367.383 137.252V139.152H369.283V137.252H367.383ZM371.612 137.252V139.152H373.511V137.252H371.612ZM375.828 137.252V139.152H377.727V137.252H375.828ZM380.056 137.252V139.152H381.955V137.252H380.056ZM384.273 137.252V138.829C384.868 138.364 385.411 137.832 385.897 137.252H384.273Z" fill="#CCCCCC"/>
    <path d="M193.398 125.815C193.4 134.169 191.756 142.443 188.56 150.162C185.365 157.881 180.679 164.895 174.773 170.804C168.866 176.712 161.853 181.399 154.134 184.597C146.416 187.794 138.143 189.44 129.788 189.44C121.434 189.44 113.161 187.794 105.442 184.597C97.7239 181.399 90.711 176.712 84.8041 170.804C78.8972 164.895 74.2121 157.881 71.0164 150.162C67.8206 142.443 66.1769 134.169 66.179 125.815C66.1769 117.46 67.8206 109.187 71.0164 101.468C74.2121 93.7483 78.8972 86.7342 84.8041 80.8258C90.711 74.9175 97.7239 70.2306 105.442 67.033C113.161 63.8353 121.434 62.1895 129.788 62.1895C138.143 62.1895 146.416 63.8353 154.134 67.033C161.853 70.2306 168.866 74.9175 174.773 80.8258C180.679 86.7342 185.365 93.7483 188.56 101.468C191.756 109.187 193.4 117.46 193.398 125.815Z" fill="black" stroke="white" stroke-width="1.2"/>
    <path d="M129.728 68.1699L138.211 76.6357H121.246L129.728 68.1699Z" fill="#CCCCCC" stroke="black" stroke-width="1.2"/>
    <path d="M128.363 183.527L136.846 175.061H119.881L128.363 183.527Z" fill="#CCCCCC" stroke="black" stroke-width="1.2"/>
    <path d="M186.723 125.221L178.258 133.703V116.738L186.723 125.221Z" fill="#CCCCCC" stroke="black" stroke-width="1.2"/>
    <path d="M71.4551 125.221L79.9209 116.738V133.703L71.4551 125.221Z" fill="#CCCCCC" stroke="black" stroke-width="1.2"/>
    <path d="M128.357 133.077C127.592 133.077 126.758 133.234 125.718 133.925L116.33 142.979C115.58 143.692 115.06 144.469 114.705 145.499L113.308 162.508C114.238 165.993 116.439 168.328 120.032 168.982C126.291 169.476 131.097 169.398 136.683 168.982C140.276 168.328 142.489 165.993 143.419 162.508L142.022 145.499C141.667 144.469 141.147 143.692 140.397 142.979L131.009 133.925C129.969 133.234 129.123 133.077 128.357 133.077Z" fill="#DE2900" stroke="black" stroke-width="1.2"/>
    <path d="M128.357 116.718C127.592 116.718 126.758 116.562 125.718 115.87L116.33 106.817C115.58 106.103 115.06 105.327 114.705 104.296L113.308 87.2878C114.238 83.8021 116.439 81.4675 120.032 80.814C126.291 80.3195 131.097 80.3973 136.683 80.814C140.276 81.4675 142.489 83.8021 143.419 87.2878L142.022 104.296C141.667 105.327 141.147 106.103 140.397 106.817L131.009 115.87C129.969 116.562 129.123 116.718 128.357 116.718Z" fill="#DE2900" stroke="black" stroke-width="1.2"/>
    <path d="M136.568 124.856C136.568 125.621 136.725 126.455 137.416 127.495L146.47 136.883C147.183 137.633 147.96 138.153 148.99 138.508L165.999 139.905C169.485 138.975 171.819 136.774 172.473 133.181C172.967 126.922 172.889 122.116 172.473 116.531C171.819 112.937 169.485 110.724 165.999 109.794L148.99 111.191C147.96 111.546 147.183 112.066 146.47 112.816L137.416 122.204C136.725 123.244 136.568 124.09 136.568 124.856Z" fill="#DE2900" stroke="black" stroke-width="1.2"/>
    <path d="M119.92 124.844C119.92 124.078 119.763 123.244 119.072 122.204L110.018 112.816C109.305 112.066 108.528 111.546 107.498 111.191L90.4892 109.794C87.0035 110.724 84.6689 112.925 84.0154 116.519C83.5209 122.777 83.5987 127.584 84.0154 133.169C84.6689 136.762 87.0035 138.975 90.4892 139.905L107.498 138.508C108.528 138.153 109.305 137.633 110.018 136.883L119.072 127.495C119.763 126.455 119.92 125.609 119.92 124.844Z" fill="#DE2900" stroke="black" stroke-width="1.2"/>
    <mask id="mask0_319_2" style="mask-type:luminance" maskUnits="userSpaceOnUse" x="83" y="80" width="90" height="90">
        <path d="M128.602 80.4733C125.92 80.4635 123.155 80.5724 120.026 80.8196C116.433 81.4732 114.232 83.8078 113.302 87.2934L114.699 104.302C115.054 105.332 115.574 106.109 116.324 106.822L125.712 115.876C126.752 116.567 127.586 116.724 128.351 116.724C129.117 116.724 129.963 116.567 131.003 115.876L140.391 106.822C141.141 106.109 141.661 105.332 142.016 104.302L143.413 87.2934C142.483 83.8078 140.27 81.4732 136.677 80.8196C133.884 80.6113 131.284 80.483 128.602 80.4733ZM90.4882 109.796C87.0025 110.727 84.6679 112.928 84.0144 116.521C83.52 122.779 83.5977 127.586 84.0144 133.171C84.6679 136.764 87.0025 138.977 90.4882 139.908L107.497 138.51C108.527 138.156 109.304 137.636 110.017 136.886L119.071 127.498C119.762 126.458 119.919 125.612 119.919 124.846C119.919 124.081 119.762 123.246 119.071 122.206L110.017 112.818C109.304 112.068 108.527 111.549 107.497 111.194L90.4882 109.796ZM166 109.796L148.991 111.194C147.961 111.549 147.184 112.068 146.471 112.818L137.417 122.206C136.726 123.246 136.569 124.093 136.569 124.858C136.569 125.624 136.726 126.458 137.417 127.498L146.471 136.886C147.184 137.636 147.961 138.156 148.991 138.51L166 139.908C169.485 138.977 171.82 136.776 172.474 133.183C172.968 126.925 172.89 122.118 172.474 116.533C171.82 112.94 169.485 110.727 166 109.796ZM128.351 133.076C127.586 133.076 126.752 133.232 125.712 133.924L116.324 142.978C115.574 143.691 115.054 144.468 114.699 145.498L113.302 162.506C114.232 165.992 116.433 168.327 120.026 168.98C126.285 169.475 131.092 169.397 136.677 168.98C140.27 168.327 142.483 165.992 143.413 162.506L142.016 145.498C141.661 144.468 141.141 143.691 140.391 142.978L131.003 133.924C129.963 133.232 129.117 133.076 128.351 133.076Z" fill="white"/>
    </mask>
    <g mask="url(#mask0_319_2)">
        <path opacity="0.5" d="M148.406 124.898C148.406 130.245 146.282 135.373 142.501 139.154C138.719 142.935 133.591 145.06 128.244 145.06C122.897 145.06 117.768 142.935 113.987 139.154C110.206 135.373 108.082 130.245 108.082 124.898C108.082 119.55 110.206 114.422 113.987 110.641C117.768 106.86 122.897 104.736 128.244 104.736C133.591 104.736 138.719 106.86 142.501 110.641C146.282 114.422 148.406 119.55 148.406 124.898Z" fill="#DE2900" stroke="black" stroke-width="1.2"/>
    </g>
    <path d="M534.9 125.815C534.902 134.17 533.259 142.444 530.064 150.163C526.868 157.883 522.183 164.897 516.276 170.806C510.369 176.715 503.356 181.402 495.637 184.6C487.919 187.798 479.645 189.444 471.291 189.444C462.936 189.444 454.662 187.798 446.944 184.6C439.225 181.402 432.212 176.715 426.305 170.806C420.398 164.897 415.713 157.883 412.518 150.163C409.322 142.444 407.679 134.17 407.681 125.815C407.679 117.46 409.322 109.186 412.518 101.467C415.713 93.747 420.398 86.7324 426.305 80.8237C432.212 74.915 439.225 70.2278 446.944 67.0299C454.662 63.832 462.936 62.186 471.291 62.186C479.645 62.186 487.919 63.832 495.637 67.0299C503.356 70.2278 510.369 74.915 516.276 80.8237C522.183 86.7324 526.868 93.747 530.064 101.467C533.259 109.186 534.902 117.46 534.9 125.815Z" fill="black" stroke="#CCCCCC" stroke-width="1.2"/>
    <path d="M489.212 85.0746C489.21 89.6031 487.41 93.9453 484.207 97.1467C481.004 100.348 476.661 102.146 472.132 102.146C467.604 102.146 463.261 100.348 460.058 97.1467C456.855 93.9453 455.054 89.6031 455.052 85.0746C455.051 82.8309 455.492 80.609 456.35 78.5358C457.208 76.4626 458.466 74.5788 460.052 72.9919C461.638 71.405 463.521 70.1461 465.594 69.2873C467.667 68.4284 469.889 67.9863 472.132 67.9863C474.376 67.9863 476.598 68.4284 478.67 69.2873C480.743 70.1461 482.626 71.405 484.213 72.9919C485.799 74.5788 487.057 76.4626 487.915 78.5358C488.772 80.609 489.213 82.8309 489.212 85.0746Z" fill="black" stroke="#CCCCCC" stroke-width="1.2"/>
    <path d="M489.212 164.892C489.21 169.42 487.41 173.763 484.207 176.964C481.004 180.165 476.661 181.964 472.132 181.964C467.604 181.964 463.261 180.165 460.058 176.964C456.855 173.763 455.054 169.42 455.052 164.892C455.051 162.648 455.492 160.426 456.35 158.353C457.208 156.28 458.466 154.396 460.052 152.809C461.638 151.222 463.521 149.964 465.594 149.105C467.667 148.246 469.889 147.804 472.132 147.804C474.376 147.804 476.598 148.246 478.67 149.105C480.743 149.964 482.626 151.222 484.213 152.809C485.799 154.396 487.057 156.28 487.915 158.353C488.772 160.426 489.213 162.648 489.212 164.892Z" fill="black" stroke="#DE2900" stroke-width="1.2"/>
    <path d="M449.063 124.759C449.063 129.289 447.264 133.633 444.061 136.837C440.857 140.04 436.513 141.839 431.983 141.839C427.453 141.839 423.109 140.04 419.906 136.837C416.703 133.633 414.903 129.289 414.903 124.759C414.903 120.229 416.703 115.885 419.906 112.682C423.109 109.479 427.453 107.679 431.983 107.679C436.513 107.679 440.857 109.479 444.061 112.682C447.264 115.885 449.063 120.229 449.063 124.759Z" fill="black" stroke="#CCCCCC" stroke-width="1.2"/>
    <path d="M530.147 124.759C530.145 129.288 528.345 133.63 525.142 136.831C521.939 140.033 517.596 141.831 513.067 141.831C508.539 141.831 504.196 140.033 500.993 136.831C497.79 133.63 495.99 129.288 495.987 124.759C495.986 122.516 496.427 120.294 497.285 118.22C498.143 116.147 499.401 114.263 500.987 112.676C502.573 111.09 504.457 109.831 506.529 108.972C508.602 108.113 510.824 107.671 513.067 107.671C515.311 107.671 517.533 108.113 519.606 108.972C521.678 109.831 523.562 111.09 525.148 112.676C526.734 114.263 527.992 116.147 528.85 118.22C529.708 120.294 530.149 122.516 530.147 124.759Z" fill="black" stroke="#CCCCCC" stroke-width="1.2"/>
    <path d="M462.292 155.163L481.972 174.621Z" fill="#DE2900"/>
    <path d="M462.292 155.163L481.972 174.621" stroke="#DE2900" stroke-width="2"/>
    <path d="M481.905 155.035L462.359 174.75Z" fill="#DE2900"/>
    <path d="M481.905 155.035L462.359 174.75" stroke="#DE2900" stroke-width="2"/>
    <path d="M524.506 124.759C524.506 126.262 524.211 127.75 523.636 129.138C523.062 130.526 522.219 131.788 521.157 132.85C520.095 133.913 518.834 134.756 517.446 135.331C516.058 135.906 514.57 136.202 513.067 136.202C511.565 136.202 510.077 135.906 508.689 135.331C507.301 134.756 506.04 133.913 504.978 132.85C503.916 131.788 503.073 130.526 502.499 129.138C501.924 127.75 501.629 126.262 501.629 124.759C501.629 123.257 501.924 121.769 502.499 120.381C503.073 118.992 503.916 117.731 504.978 116.668C506.04 115.606 507.301 114.763 508.689 114.188C510.077 113.612 511.565 113.316 513.067 113.316C514.57 113.316 516.058 113.612 517.446 114.188C518.834 114.763 520.095 115.606 521.157 116.668C522.219 117.731 523.062 118.992 523.636 120.381C524.211 121.769 524.506 123.257 524.506 124.759Z" fill="#CCCCCC" stroke="black" stroke-width="2"/>
    <path d="M441.346 115.396H422.62V134.122H441.346V115.396Z" fill="#CCCCCC" stroke="black" stroke-width="2"/>
    <path d="M472.132 72.2441L483.522 90.9698H460.742L472.132 72.2441Z" fill="#CCCCCC" stroke="black" stroke-width="2"/>
    <path d="M212.924 150.284C243.486 150.284 265.598 175.059 265.598 205.621C265.598 236.183 247.445 260.959 212.924 260.959C181.543 260.959 159.139 236.183 159.139 205.621C159.139 197.546 160.751 189.881 163.702 182.963L193.778 153.771C199.68 151.525 206.119 150.284 212.924 150.284Z" fill="black" stroke="#CCCCCC" stroke-width="1.2"/>
    <path d="M212.255 151.299C239.386 151.299 261.382 173.283 261.382 200.414C261.382 227.544 239.386 249.54 212.255 249.54C185.125 249.54 163.129 227.544 163.129 200.414C163.129 192.554 164.983 185.131 168.265 178.544L191.687 155.802C197.946 152.911 204.909 151.299 212.255 151.299Z" fill="black" stroke="#CCCCCC" stroke-width="1.2"/>
    <path d="M176.433 200.417C176.431 205.123 177.356 209.783 179.156 214.131C180.956 218.479 183.594 222.429 186.921 225.757C190.248 229.085 194.198 231.725 198.545 233.526C202.892 235.328 207.552 236.255 212.258 236.255C216.963 236.255 221.623 235.328 225.97 233.526C230.317 231.725 234.267 229.085 237.594 225.757C240.921 222.429 243.559 218.479 245.359 214.131C247.159 209.783 248.084 205.123 248.082 200.417C248.084 195.711 247.159 191.052 245.359 186.704C243.559 182.356 240.921 178.405 237.594 175.077C234.267 171.749 230.317 169.109 225.97 167.308C221.623 165.507 216.963 164.58 212.258 164.58C207.552 164.58 202.892 165.507 198.545 167.308C194.198 169.109 190.248 171.749 186.921 175.077C183.594 178.405 180.956 182.356 179.156 186.704C177.356 191.052 176.431 195.711 176.433 200.417Z" fill="black" stroke="#CCCCCC" stroke-width="1.2"/>
    <path d="M245.279 197.87C245.279 202.059 244.454 206.208 242.851 210.078C241.248 213.948 238.898 217.465 235.936 220.428C232.973 223.39 229.457 225.74 225.586 227.343C221.716 228.946 217.567 229.771 213.378 229.771C209.189 229.771 205.041 228.946 201.17 227.343C197.3 225.74 193.783 223.39 190.821 220.428C187.858 217.465 185.508 213.948 183.905 210.078C182.302 206.208 181.477 202.059 181.477 197.87C181.477 193.681 182.302 189.532 183.905 185.662C185.508 181.791 187.858 178.275 190.821 175.312C193.783 172.35 197.3 170 201.17 168.397C205.041 166.794 209.189 165.969 213.378 165.969C217.567 165.969 221.716 166.794 225.586 168.397C229.457 170 232.973 172.35 235.936 175.312C238.898 178.275 241.248 181.791 242.851 185.662C244.454 189.532 245.279 193.681 245.279 197.87Z" fill="black" stroke="#CCCCCC" stroke-width="1.2"/>
    <path opacity="0.5" d="M239.369 197.87C239.37 201.284 238.699 204.665 237.394 207.82C236.089 210.975 234.174 213.841 231.761 216.256C229.347 218.671 226.481 220.586 223.327 221.893C220.173 223.2 216.792 223.873 213.378 223.873C209.964 223.873 206.583 223.2 203.429 221.893C200.275 220.586 197.409 218.671 194.996 216.256C192.582 213.841 190.668 210.975 189.362 207.82C188.057 204.665 187.386 201.284 187.387 197.87C187.386 194.456 188.057 191.075 189.362 187.92C190.668 184.765 192.582 181.898 194.996 179.484C197.409 177.069 200.275 175.153 203.429 173.846C206.583 172.539 209.964 171.867 213.378 171.867C216.792 171.867 220.173 172.539 223.327 173.846C226.481 175.153 229.347 177.069 231.761 179.484C234.174 181.898 236.089 184.765 237.394 187.92C238.699 191.075 239.37 194.456 239.369 197.87Z" fill="black" stroke="#CCCCCC" stroke-width="1.2"/>
    <path opacity="0.5" d="M232.924 197.87C232.924 203.054 230.865 208.025 227.199 211.691C223.534 215.357 218.562 217.416 213.378 217.416C208.194 217.416 203.223 215.357 199.557 211.691C195.891 208.025 193.832 203.054 193.832 197.87C193.832 192.686 195.891 187.714 199.557 184.049C203.223 180.383 208.194 178.324 213.378 178.324C218.562 178.324 223.534 180.383 227.199 184.049C230.865 187.714 232.924 192.686 232.924 197.87Z" fill="black" stroke="#CCCCCC" stroke-width="1.2"/>
    <path d="M387.999 150.284C357.437 150.284 335.325 175.059 335.325 205.621C335.325 236.183 353.479 260.959 387.999 260.959C419.38 260.959 441.784 236.183 441.784 205.621C441.784 197.546 440.172 189.881 437.221 182.963L407.146 153.771C401.243 151.525 394.804 150.284 387.999 150.284Z" fill="black" stroke="#CCCCCC" stroke-width="1.2"/>
    <path d="M388.668 151.299C361.537 151.299 339.541 173.283 339.541 200.414C339.541 227.544 361.537 249.54 388.668 249.54C415.799 249.54 437.795 227.544 437.795 200.414C437.795 192.554 435.94 185.131 432.659 178.544L409.236 155.802C402.977 152.911 396.015 151.299 388.668 151.299Z" fill="black" stroke="#CCCCCC" stroke-width="1.2"/>
    <path d="M424.491 200.417C424.492 205.123 423.567 209.783 421.767 214.131C419.968 218.479 417.329 222.429 414.002 225.757C410.676 229.085 406.726 231.725 402.378 233.526C398.031 235.328 393.372 236.255 388.666 236.255C383.96 236.255 379.301 235.328 374.953 233.526C370.606 231.725 366.656 229.085 363.329 225.757C360.003 222.429 357.364 218.479 355.564 214.131C353.765 209.783 352.839 205.123 352.841 200.417C352.839 195.711 353.765 191.052 355.564 186.704C357.364 182.356 360.003 178.405 363.329 175.077C366.656 171.749 370.606 169.109 374.953 167.308C379.301 165.507 383.96 164.58 388.666 164.58C393.372 164.58 398.031 165.507 402.378 167.308C406.726 169.109 410.676 171.749 414.002 175.077C417.329 178.405 419.968 182.356 421.767 186.704C423.567 191.052 424.492 195.711 424.491 200.417Z" fill="black" stroke="#CCCCCC" stroke-width="1.2"/>
    <path d="M420.202 197.87C420.202 206.331 416.841 214.445 410.859 220.428C404.876 226.41 396.762 229.771 388.301 229.771C379.841 229.771 371.726 226.41 365.744 220.428C359.761 214.445 356.4 206.331 356.4 197.87C356.4 189.409 359.761 181.295 365.744 175.312C371.726 169.33 379.841 165.969 388.301 165.969C396.762 165.969 404.876 169.33 410.859 175.312C416.841 181.295 420.202 189.409 420.202 197.87Z" fill="black" stroke="#CCCCCC" stroke-width="1.2"/>
    <path opacity="0.5" d="M414.292 197.87C414.294 201.284 413.623 204.665 412.317 207.82C411.012 210.975 409.097 213.841 406.684 216.256C404.27 218.671 401.404 220.586 398.25 221.893C395.096 223.2 391.715 223.873 388.301 223.873C384.887 223.873 381.506 223.2 378.352 221.893C375.198 220.586 372.332 218.671 369.919 216.256C367.505 213.841 365.591 210.975 364.285 207.82C362.98 204.665 362.309 201.284 362.311 197.87C362.309 194.456 362.98 191.075 364.285 187.92C365.591 184.765 367.505 181.898 369.919 179.484C372.332 177.069 375.198 175.153 378.352 173.846C381.506 172.539 384.887 171.867 388.301 171.867C391.715 171.867 395.096 172.539 398.25 173.846C401.404 175.153 404.27 177.069 406.684 179.484C409.097 181.898 411.012 184.765 412.317 187.92C413.623 191.075 414.294 194.456 414.292 197.87Z" fill="black" stroke="#CCCCCC" stroke-width="1.2"/>
    <path opacity="0.5" d="M407.847 197.87C407.847 203.054 405.788 208.025 402.122 211.691C398.457 215.357 393.485 217.416 388.301 217.416C383.117 217.416 378.146 215.357 374.48 211.691C370.814 208.025 368.755 203.054 368.755 197.87C368.755 192.686 370.814 187.714 374.48 184.049C378.146 180.383 383.117 178.324 388.301 178.324C393.485 178.324 398.457 180.383 402.122 184.049C405.788 187.714 407.847 192.686 407.847 197.87Z" fill="black" stroke="#CCCCCC" stroke-width="1.2"/>
    <path d="M188.825 56.5815C184.002 56.5815 180.094 60.4889 180.094 65.3128V78.6187C180.094 83.4426 184.002 87.3499 188.825 87.3499C193.649 87.3499 197.557 83.4426 197.557 78.6187V65.3128C197.557 60.4889 193.649 56.5815 188.825 56.5815Z" fill="#CCCCCC" stroke="black" stroke-width="1.2"/>
    <path d="M412.797 56.5815C407.973 56.5815 404.066 60.4889 404.066 65.3128V78.6187C404.066 83.4426 407.973 87.3499 412.797 87.3499C417.621 87.3499 421.528 83.4426 421.528 78.6187V65.3128C421.528 60.4889 417.621 56.5815 412.797 56.5815Z" fill="#CCCCCC" stroke="black" stroke-width="1.2"/>
    <path d="M313.755 203.372C313.756 205.179 313.401 206.969 312.71 208.639C312.02 210.308 311.007 211.826 309.729 213.104C308.452 214.382 306.935 215.396 305.266 216.088C303.596 216.78 301.807 217.136 300 217.136C298.193 217.136 296.404 216.78 294.734 216.088C293.065 215.396 291.548 214.382 290.271 213.104C288.993 211.826 287.98 210.308 287.29 208.639C286.599 206.969 286.244 205.179 286.245 203.372C286.244 201.565 286.599 199.776 287.29 198.106C287.98 196.436 288.993 194.918 290.271 193.64C291.548 192.362 293.065 191.348 294.734 190.656C296.404 189.964 298.193 189.608 300 189.608C301.807 189.608 303.596 189.964 305.266 190.656C306.935 191.348 308.452 192.362 309.729 193.64C311.007 194.918 312.02 196.436 312.71 198.106C313.401 199.776 313.756 201.565 313.755 203.372Z" fill="#CCCCCC" stroke="black" stroke-width="1.2"/>
    <path d="M283.056 164.176C283.057 164.499 282.993 164.818 282.87 165.117C282.747 165.415 282.566 165.686 282.337 165.915C282.109 166.143 281.838 166.324 281.54 166.448C281.242 166.571 280.922 166.635 280.599 166.635C280.276 166.635 279.957 166.571 279.658 166.448C279.36 166.324 279.089 166.143 278.861 165.915C278.633 165.686 278.452 165.415 278.328 165.117C278.205 164.818 278.142 164.499 278.142 164.176C278.142 163.853 278.205 163.533 278.328 163.235C278.452 162.936 278.633 162.665 278.861 162.437C279.089 162.208 279.36 162.027 279.658 161.904C279.957 161.78 280.276 161.716 280.599 161.716C280.922 161.716 281.242 161.78 281.54 161.904C281.838 162.027 282.109 162.208 282.337 162.437C282.566 162.665 282.747 162.936 282.87 163.235C282.993 163.533 283.057 163.853 283.056 164.176Z" fill="#CCCCCC" stroke="black" stroke-width="1.2"/>
    <path d="M292.616 164.363C292.616 164.661 292.558 164.957 292.444 165.232C292.33 165.508 292.163 165.758 291.952 165.969C291.741 166.18 291.491 166.348 291.216 166.462C290.94 166.576 290.645 166.635 290.347 166.635C290.048 166.635 289.753 166.576 289.478 166.462C289.202 166.348 288.952 166.18 288.741 165.969C288.53 165.758 288.363 165.508 288.249 165.232C288.135 164.957 288.077 164.661 288.077 164.363C288.077 164.065 288.135 163.77 288.249 163.494C288.363 163.219 288.53 162.968 288.741 162.757C288.952 162.546 289.202 162.379 289.478 162.265C289.753 162.151 290.048 162.092 290.347 162.092C290.645 162.092 290.94 162.151 291.216 162.265C291.491 162.379 291.741 162.546 291.952 162.757C292.163 162.968 292.33 163.219 292.444 163.494C292.558 163.77 292.616 164.065 292.616 164.363Z" fill="#CCCCCC" stroke="black" stroke-width="1.2"/>
    <path d="M302.363 164.363C302.364 164.661 302.305 164.957 302.191 165.232C302.077 165.508 301.91 165.758 301.699 165.969C301.489 166.18 301.238 166.348 300.963 166.462C300.687 166.576 300.392 166.635 300.094 166.635C299.796 166.635 299.5 166.576 299.225 166.462C298.949 166.348 298.699 166.18 298.488 165.969C298.278 165.758 298.111 165.508 297.997 165.232C297.883 164.957 297.824 164.661 297.824 164.363C297.824 164.065 297.883 163.77 297.997 163.494C298.111 163.219 298.278 162.968 298.488 162.757C298.699 162.546 298.949 162.379 299.225 162.265C299.5 162.151 299.796 162.092 300.094 162.092C300.392 162.092 300.687 162.151 300.963 162.265C301.238 162.379 301.489 162.546 301.699 162.757C301.91 162.968 302.077 163.219 302.191 163.494C302.305 163.77 302.364 164.065 302.363 164.363Z" fill="#CCCCCC" stroke="black" stroke-width="1.2"/>
    <path d="M312.111 164.363C312.111 164.661 312.052 164.957 311.939 165.232C311.825 165.508 311.658 165.758 311.447 165.969C311.236 166.18 310.986 166.348 310.71 166.462C310.435 166.576 310.14 166.635 309.841 166.635C309.543 166.635 309.248 166.576 308.972 166.462C308.697 166.348 308.447 166.18 308.236 165.969C308.025 165.758 307.858 165.508 307.744 165.232C307.63 164.957 307.572 164.661 307.572 164.363C307.572 164.065 307.63 163.77 307.744 163.494C307.858 163.219 308.025 162.968 308.236 162.757C308.447 162.546 308.697 162.379 308.972 162.265C309.248 162.151 309.543 162.092 309.841 162.092C310.14 162.092 310.435 162.151 310.71 162.265C310.986 162.379 311.236 162.546 311.447 162.757C311.658 162.968 311.825 163.219 311.939 163.494C312.052 163.77 312.111 164.065 312.111 164.363Z" fill="#CCCCCC" stroke="black" stroke-width="1.2"/>
    <path d="M321.858 164.363C321.858 164.661 321.8 164.957 321.686 165.232C321.572 165.508 321.405 165.758 321.194 165.969C320.983 166.18 320.733 166.348 320.458 166.462C320.182 166.576 319.887 166.635 319.589 166.635C319.29 166.635 318.995 166.576 318.72 166.462C318.444 166.348 318.194 166.18 317.983 165.969C317.772 165.758 317.605 165.508 317.491 165.232C317.377 164.957 317.319 164.661 317.319 164.363C317.319 164.065 317.377 163.77 317.491 163.494C317.605 163.219 317.772 162.968 317.983 162.757C318.194 162.546 318.444 162.379 318.72 162.265C318.995 162.151 319.29 162.092 319.589 162.092C319.887 162.092 320.182 162.151 320.458 162.265C320.733 162.379 320.983 162.546 321.194 162.757C321.405 162.968 321.572 163.219 321.686 163.494C321.8 163.77 321.858 164.065 321.858 164.363Z" fill="#CCCCCC" stroke="black" stroke-width="1.2"/>
    <path d="M316.972 171.591C316.972 171.889 316.914 172.184 316.8 172.46C316.686 172.736 316.519 172.986 316.308 173.197C316.097 173.408 315.847 173.575 315.572 173.689C315.296 173.804 315.001 173.862 314.703 173.862C314.405 173.862 314.109 173.804 313.834 173.689C313.558 173.575 313.308 173.408 313.097 173.197C312.887 172.986 312.719 172.736 312.606 172.46C312.492 172.184 312.433 171.889 312.433 171.591C312.433 171.293 312.492 170.997 312.606 170.722C312.719 170.446 312.887 170.196 313.097 169.985C313.308 169.774 313.558 169.606 313.834 169.492C314.109 169.378 314.405 169.319 314.703 169.319C315.001 169.319 315.296 169.378 315.572 169.492C315.847 169.606 316.097 169.774 316.308 169.985C316.519 170.196 316.686 170.446 316.8 170.722C316.914 170.997 316.972 171.293 316.972 171.591Z" fill="#CCCCCC" stroke="black" stroke-width="1.2"/>
    <path d="M307.133 171.591C307.133 171.889 307.074 172.184 306.961 172.46C306.847 172.736 306.679 172.986 306.469 173.197C306.258 173.408 306.008 173.575 305.732 173.689C305.457 173.804 305.161 173.862 304.863 173.862C304.565 173.862 304.27 173.804 303.994 173.689C303.719 173.575 303.469 173.408 303.258 173.197C303.047 172.986 302.88 172.736 302.766 172.46C302.652 172.184 302.594 171.889 302.594 171.591C302.594 171.293 302.652 170.997 302.766 170.722C302.88 170.446 303.047 170.196 303.258 169.985C303.469 169.774 303.719 169.606 303.994 169.492C304.27 169.378 304.565 169.319 304.863 169.319C305.161 169.319 305.457 169.378 305.732 169.492C306.008 169.606 306.258 169.774 306.469 169.985C306.679 170.196 306.847 170.446 306.961 170.722C307.074 170.997 307.133 171.293 307.133 171.591Z" fill="#CCCCCC" stroke="black" stroke-width="1.2"/>
    <path d="M297.293 171.591C297.293 171.889 297.235 172.184 297.121 172.46C297.007 172.736 296.84 172.986 296.629 173.197C296.418 173.408 296.168 173.575 295.893 173.689C295.617 173.804 295.322 173.862 295.024 173.862C294.726 173.862 294.43 173.804 294.155 173.689C293.879 173.575 293.629 173.408 293.418 173.197C293.208 172.986 293.04 172.736 292.927 172.46C292.813 172.184 292.754 171.889 292.754 171.591C292.754 171.293 292.813 170.997 292.927 170.722C293.04 170.446 293.208 170.196 293.418 169.985C293.629 169.774 293.879 169.606 294.155 169.492C294.43 169.378 294.726 169.319 295.024 169.319C295.322 169.319 295.617 169.378 295.893 169.492C296.168 169.606 296.418 169.774 296.629 169.985C296.84 170.196 297.007 170.446 297.121 170.722C297.235 170.997 297.293 171.293 297.293 171.591Z" fill="#CCCCCC" stroke="black" stroke-width="1.2"/>
    <path d="M287.454 171.591C287.454 171.889 287.396 172.184 287.282 172.46C287.168 172.736 287.001 172.986 286.79 173.197C286.579 173.408 286.329 173.575 286.053 173.689C285.778 173.804 285.483 173.862 285.184 173.862C284.886 173.862 284.591 173.804 284.315 173.689C284.04 173.575 283.79 173.408 283.579 173.197C283.368 172.986 283.201 172.736 283.087 172.46C282.973 172.184 282.915 171.889 282.915 171.591C282.915 171.293 282.973 170.997 283.087 170.722C283.201 170.446 283.368 170.196 283.579 169.985C283.79 169.774 284.04 169.606 284.315 169.492C284.591 169.378 284.886 169.319 285.184 169.319C285.483 169.319 285.778 169.378 286.053 169.492C286.329 169.606 286.579 169.774 286.79 169.985C287.001 170.196 287.168 170.446 287.282 170.722C287.396 170.997 287.454 171.293 287.454 171.591Z" fill="#CCCCCC" stroke="black" stroke-width="1.2"/>
    <path d="M292.423 178.681C292.423 178.979 292.365 179.274 292.251 179.55C292.137 179.825 291.97 180.076 291.759 180.287C291.548 180.498 291.298 180.665 291.023 180.779C290.747 180.893 290.452 180.952 290.154 180.952C289.855 180.952 289.56 180.893 289.285 180.779C289.009 180.665 288.759 180.498 288.548 180.287C288.337 180.076 288.17 179.825 288.056 179.55C287.943 179.274 287.884 178.979 287.884 178.681C287.884 178.382 287.943 178.087 288.056 177.812C288.17 177.536 288.337 177.286 288.548 177.075C288.759 176.864 289.009 176.696 289.285 176.582C289.56 176.468 289.855 176.409 290.154 176.409C290.452 176.409 290.747 176.468 291.023 176.582C291.298 176.696 291.548 176.864 291.759 177.075C291.97 177.286 292.137 177.536 292.251 177.812C292.365 178.087 292.423 178.382 292.423 178.681Z" fill="#CCCCCC" stroke="black" stroke-width="1.2"/>
    <path d="M302.265 178.681C302.265 178.979 302.206 179.274 302.092 179.55C301.979 179.825 301.811 180.076 301.601 180.287C301.39 180.498 301.14 180.665 300.864 180.779C300.589 180.893 300.293 180.952 299.995 180.952C299.697 180.952 299.402 180.893 299.126 180.779C298.851 180.665 298.601 180.498 298.39 180.287C298.179 180.076 298.012 179.825 297.898 179.55C297.784 179.274 297.726 178.979 297.726 178.681C297.726 178.382 297.784 178.087 297.898 177.812C298.012 177.536 298.179 177.286 298.39 177.075C298.601 176.864 298.851 176.696 299.126 176.582C299.402 176.468 299.697 176.409 299.995 176.409C300.293 176.409 300.589 176.468 300.864 176.582C301.14 176.696 301.39 176.864 301.601 177.075C301.811 177.286 301.979 177.536 302.092 177.812C302.206 178.087 302.265 178.382 302.265 178.681Z" fill="#CCCCCC" stroke="black" stroke-width="1.2"/>
    <path d="M312.106 178.681C312.106 178.979 312.048 179.274 311.934 179.55C311.82 179.825 311.653 180.076 311.442 180.287C311.231 180.498 310.981 180.665 310.706 180.779C310.43 180.893 310.135 180.952 309.837 180.952C309.539 180.952 309.243 180.893 308.968 180.779C308.692 180.665 308.442 180.498 308.231 180.287C308.021 180.076 307.853 179.825 307.74 179.55C307.626 179.274 307.567 178.979 307.567 178.681C307.567 178.382 307.626 178.087 307.74 177.812C307.853 177.536 308.021 177.286 308.231 177.075C308.442 176.864 308.692 176.696 308.968 176.582C309.243 176.468 309.539 176.409 309.837 176.409C310.135 176.409 310.43 176.468 310.706 176.582C310.981 176.696 311.231 176.864 311.442 177.075C311.653 177.286 311.82 177.536 311.934 177.812C312.048 178.087 312.106 178.382 312.106 178.681Z" fill="#CCCCCC" stroke="black" stroke-width="1.2"/>
    <path d="M179.656 52.79C179.656 52.9826 179.601 53.154 179.491 53.3043C179.381 53.4546 179.229 53.5821 179.033 53.6868C178.838 53.7916 178.609 53.8704 178.345 53.9234C178.08 53.9763 177.796 54.0027 177.491 54.0027C177.278 54.0027 177.08 53.9911 176.898 53.9678C176.716 53.9445 176.553 53.9159 176.411 53.8821C176.268 53.8482 176.148 53.8133 176.051 53.7773C175.955 53.7413 175.887 53.7106 175.85 53.6852C175.812 53.6598 175.784 53.6276 175.766 53.5884C175.748 53.5493 175.739 53.4969 175.739 53.4313C175.739 53.3847 175.743 53.3461 175.749 53.3154C175.755 53.2847 175.765 53.2598 175.778 53.2408C175.792 53.2217 175.808 53.2085 175.828 53.2011C175.847 53.1937 175.87 53.19 175.896 53.19C175.942 53.19 176.007 53.208 176.091 53.244C176.175 53.2799 176.282 53.3191 176.413 53.3614C176.544 53.4037 176.703 53.4434 176.888 53.4805C177.073 53.5175 177.287 53.536 177.53 53.536C177.714 53.536 177.882 53.5202 178.035 53.4884C178.187 53.4567 178.318 53.4117 178.428 53.3535C178.538 53.2953 178.623 53.2238 178.682 53.1392C178.741 53.0545 178.77 52.9582 178.77 52.8503C178.77 52.7339 178.729 52.6344 178.647 52.5519C178.565 52.4693 178.457 52.3968 178.322 52.3344C178.188 52.2719 178.035 52.2148 177.862 52.1629C177.69 52.1111 177.514 52.0582 177.333 52.0042C177.153 51.9502 176.977 51.8904 176.807 51.8248C176.636 51.7592 176.484 51.682 176.349 51.5931C176.215 51.5042 176.106 51.3999 176.022 51.2804C175.938 51.1608 175.896 51.0174 175.896 50.8502C175.896 50.6787 175.945 50.5258 176.042 50.3914C176.138 50.257 176.273 50.1443 176.445 50.0533C176.617 49.9623 176.822 49.893 177.06 49.8454C177.298 49.7977 177.555 49.7739 177.83 49.7739C177.971 49.7739 178.113 49.7819 178.256 49.7977C178.399 49.8136 178.533 49.8348 178.659 49.8612C178.786 49.8877 178.898 49.9173 178.997 49.9501C179.095 49.9829 179.16 50.0094 179.191 50.0295C179.222 50.0496 179.243 50.0655 179.252 50.0771C179.262 50.0888 179.271 50.1036 179.277 50.1216C179.283 50.1396 179.288 50.1613 179.292 50.1866C179.296 50.212 179.297 50.2449 179.297 50.2851C179.297 50.3232 179.294 50.357 179.289 50.3867C179.284 50.4163 179.277 50.4412 179.267 50.4613C179.257 50.4814 179.243 50.4962 179.225 50.5057C179.207 50.5152 179.187 50.52 179.164 50.52C179.128 50.52 179.071 50.5052 178.994 50.4755C178.917 50.4459 178.823 50.4126 178.711 50.3755C178.6 50.3385 178.468 50.3046 178.315 50.2739C178.163 50.2433 177.991 50.2279 177.801 50.2279C177.624 50.2279 177.47 50.2433 177.338 50.2739C177.207 50.3046 177.099 50.3454 177.014 50.3962C176.928 50.447 176.864 50.5073 176.822 50.5771C176.779 50.647 176.758 50.7211 176.758 50.7994C176.758 50.9137 176.799 51.0121 176.881 51.0946C176.963 51.1772 177.072 51.2502 177.208 51.3137C177.344 51.3772 177.499 51.4354 177.673 51.4883C177.847 51.5412 178.024 51.5947 178.204 51.6486C178.385 51.7026 178.562 51.7619 178.736 51.8264C178.91 51.891 179.065 51.9672 179.201 52.055C179.337 52.1428 179.447 52.2465 179.53 52.3661C179.614 52.4857 179.656 52.627 179.656 52.79Z" fill="black"/>
    <path d="M185.448 53.8596C185.448 53.8766 185.442 53.8914 185.428 53.9041C185.415 53.9168 185.392 53.9268 185.359 53.9342C185.326 53.9416 185.283 53.948 185.229 53.9533C185.175 53.9586 185.108 53.9612 185.03 53.9612C184.944 53.9612 184.875 53.9586 184.823 53.9533C184.77 53.948 184.728 53.9416 184.695 53.9342C184.662 53.9268 184.639 53.9168 184.626 53.9041C184.613 53.8914 184.606 53.8765 184.606 53.8596V52.0373H181.708V53.8596C181.708 53.8766 181.702 53.8914 181.688 53.9041C181.675 53.9168 181.652 53.9268 181.62 53.9342C181.587 53.9416 181.543 53.948 181.489 53.9533C181.435 53.9586 181.367 53.9612 181.285 53.9612C181.206 53.9612 181.139 53.9586 181.083 53.9533C181.027 53.948 180.983 53.9416 180.95 53.9342C180.917 53.9268 180.895 53.9168 180.881 53.9041C180.868 53.8914 180.862 53.8765 180.862 53.8596V49.9166C180.862 49.8996 180.868 49.8848 180.881 49.8721C180.895 49.8594 180.918 49.8494 180.95 49.8419C180.983 49.8346 181.027 49.8282 181.083 49.8229C181.139 49.8176 181.206 49.8149 181.285 49.8149C181.367 49.8149 181.435 49.8176 181.489 49.8229C181.543 49.8282 181.587 49.8345 181.62 49.8419C181.652 49.8493 181.675 49.8594 181.688 49.8721C181.701 49.8848 181.708 49.8996 181.708 49.9166V51.5611H184.606V49.9166C184.606 49.8996 184.613 49.8848 184.626 49.8721C184.639 49.8594 184.662 49.8494 184.695 49.8419C184.728 49.8346 184.77 49.8282 184.823 49.8229C184.875 49.8176 184.944 49.8149 185.03 49.8149C185.108 49.8149 185.175 49.8176 185.229 49.8229C185.283 49.8282 185.326 49.8345 185.359 49.8419C185.392 49.8493 185.415 49.8594 185.428 49.8721C185.441 49.8848 185.448 49.8996 185.448 49.9166V53.8596Z" fill="black"/>
    <path d="M191.909 53.749C191.935 53.7955 191.949 53.8331 191.951 53.8617C191.952 53.8902 191.939 53.9119 191.914 53.9268C191.887 53.9416 191.844 53.9511 191.783 53.9553C191.722 53.9596 191.641 53.9617 191.54 53.9617C191.438 53.9617 191.357 53.9601 191.296 53.9569C191.235 53.9537 191.189 53.9485 191.158 53.9411C191.127 53.9337 191.104 53.9236 191.089 53.9109C191.075 53.8982 191.061 53.8823 191.048 53.8633L190.501 52.8632H187.854L187.332 53.8506C187.322 53.8696 187.309 53.886 187.293 53.8998C187.277 53.9135 187.253 53.9252 187.222 53.9347C187.191 53.9442 187.146 53.9511 187.089 53.9553C187.031 53.9596 186.957 53.9617 186.865 53.9617C186.77 53.9617 186.692 53.959 186.631 53.9537C186.571 53.9484 186.528 53.9384 186.503 53.9236C186.479 53.9088 186.467 53.8871 186.469 53.8585C186.47 53.8299 186.484 53.7923 186.511 53.7458L188.646 49.9297C188.659 49.9064 188.677 49.8874 188.698 49.8726C188.719 49.8577 188.75 49.8461 188.791 49.8376C188.832 49.8292 188.885 49.8233 188.949 49.8202C189.013 49.817 189.094 49.8154 189.192 49.8154C189.297 49.8154 189.384 49.817 189.453 49.8202C189.522 49.8234 189.578 49.8292 189.621 49.8376C189.663 49.8461 189.696 49.8583 189.719 49.8741C189.742 49.89 189.76 49.9096 189.773 49.9329L191.909 53.749ZM189.168 50.3805H189.163L188.066 52.4283H190.28L189.168 50.3805Z" fill="black"/>
    <path d="M197.213 53.8601C197.213 53.877 197.208 53.8918 197.199 53.9045C197.189 53.9172 197.167 53.9278 197.135 53.9363C197.102 53.9448 197.056 53.9511 196.997 53.9553C196.938 53.9596 196.859 53.9617 196.761 53.9617C196.675 53.9617 196.606 53.9596 196.551 53.9553C196.497 53.9511 196.454 53.9442 196.421 53.9347C196.388 53.9252 196.363 53.9119 196.345 53.895C196.327 53.8781 196.311 53.8569 196.298 53.8315L195.712 52.8632C195.644 52.7531 195.572 52.6521 195.498 52.56C195.425 52.4679 195.337 52.3886 195.235 52.3219C195.133 52.2552 195.014 52.2034 194.876 52.1663C194.738 52.1293 194.572 52.1108 194.379 52.1108H193.813V53.8601C193.813 53.877 193.806 53.8918 193.791 53.9045C193.776 53.9172 193.753 53.9273 193.722 53.9347C193.691 53.9421 193.648 53.9484 193.594 53.9537C193.54 53.959 193.472 53.9617 193.39 53.9617C193.308 53.9617 193.24 53.959 193.186 53.9537C193.131 53.9484 193.088 53.9421 193.055 53.9347C193.022 53.9273 192.999 53.9172 192.986 53.9045C192.973 53.8918 192.967 53.877 192.967 53.8601V50.0567C192.967 49.9742 193 49.9165 193.068 49.8837C193.135 49.8509 193.206 49.8345 193.282 49.8345H194.635C194.796 49.8345 194.929 49.8371 195.036 49.8424C195.142 49.8477 195.238 49.8535 195.324 49.8599C195.57 49.8874 195.787 49.9308 195.976 49.9901C196.164 50.0493 196.323 50.1245 196.451 50.2155C196.579 50.3065 196.674 50.4107 196.738 50.5282C196.802 50.6456 196.834 50.7753 196.834 50.9171C196.834 51.0547 196.806 51.1779 196.748 51.2869C196.691 51.3959 196.608 51.4923 196.5 51.5759C196.391 51.6595 196.262 51.7319 196.111 51.7933C195.96 51.8547 195.791 51.9066 195.604 51.9489C195.709 51.9785 195.804 52.0161 195.89 52.0616C195.975 52.1071 196.054 52.1616 196.128 52.2251C196.202 52.2886 196.272 52.3616 196.337 52.4442C196.403 52.5267 196.469 52.6198 196.534 52.7235L197.105 53.6283C197.151 53.7045 197.181 53.758 197.194 53.7887C197.207 53.8194 197.213 53.8432 197.213 53.8601ZM195.939 50.9742C195.939 50.8134 195.883 50.6774 195.772 50.5663C195.66 50.4552 195.473 50.3753 195.211 50.3266C195.129 50.3118 195.036 50.3012 194.933 50.2948C194.829 50.2885 194.694 50.2853 194.527 50.2853H193.813V51.6695H194.64C194.863 51.6695 195.056 51.652 195.218 51.6171C195.38 51.5822 195.516 51.5335 195.624 51.4711C195.732 51.4086 195.812 51.3351 195.863 51.2504C195.913 51.1658 195.939 51.0737 195.939 50.9742Z" fill="black"/>
    <path d="M201.982 53.7172C201.982 53.7553 201.978 53.7886 201.972 53.8172C201.965 53.8458 201.954 53.8696 201.937 53.8887C201.921 53.9077 201.902 53.9215 201.881 53.9299C201.859 53.9384 201.836 53.9426 201.809 53.9426H198.754C198.678 53.9426 198.607 53.9262 198.539 53.8934C198.472 53.8606 198.439 53.8029 198.439 53.7204V50.0567C198.439 49.9742 198.472 49.9165 198.539 49.8837C198.607 49.8509 198.678 49.8345 198.754 49.8345H201.775C201.801 49.8345 201.825 49.8387 201.846 49.8472C201.868 49.8556 201.885 49.8694 201.898 49.8884C201.911 49.9075 201.922 49.9313 201.93 49.9599C201.939 49.9885 201.942 50.0239 201.942 50.0662C201.942 50.1043 201.939 50.1377 201.93 50.1662C201.921 50.1948 201.911 50.2181 201.898 50.2361C201.885 50.2541 201.868 50.2673 201.846 50.2758C201.825 50.2842 201.801 50.2885 201.775 50.2885H199.285V51.5774H201.421C201.447 51.5774 201.471 51.5822 201.492 51.5917C201.513 51.6012 201.531 51.6145 201.546 51.6314C201.561 51.6483 201.571 51.6716 201.578 51.7013C201.584 51.7309 201.588 51.7658 201.588 51.806C201.588 51.8441 201.584 51.8769 201.578 51.9044C201.572 51.932 201.561 51.9542 201.546 51.9711C201.531 51.988 201.513 52.0002 201.492 52.0076C201.471 52.015 201.447 52.0187 201.421 52.0187H199.285V53.4886H201.809C201.836 53.4886 201.859 53.4929 201.881 53.5013C201.902 53.5098 201.921 53.523 201.937 53.541C201.954 53.559 201.965 53.5823 201.972 53.6109C201.978 53.6394 201.982 53.6749 201.982 53.7172Z" fill="black"/>
    <path d="M402.575 51.9545C402.575 52.2868 402.516 52.5863 402.397 52.8529C402.278 53.1196 402.101 53.3466 401.865 53.5339C401.629 53.7212 401.333 53.8652 400.977 53.9657C400.621 54.0662 400.205 54.1165 399.73 54.1165C399.262 54.1165 398.857 54.0705 398.515 53.9784C398.173 53.8863 397.891 53.7525 397.668 53.5768C397.445 53.4011 397.279 53.1831 397.17 52.9228C397.061 52.6625 397.006 52.363 397.006 52.0243C397.006 51.7005 397.066 51.4063 397.184 51.1417C397.303 50.8772 397.481 50.6523 397.719 50.4671C397.956 50.2819 398.253 50.139 398.609 50.0385C398.965 49.938 399.381 49.8877 399.856 49.8877C400.314 49.8877 400.714 49.9332 401.054 50.0242C401.394 50.1152 401.677 50.248 401.903 50.4226C402.13 50.5973 402.298 50.8131 402.409 51.0703C402.52 51.3275 402.575 51.6222 402.575 51.9545ZM401.704 51.9926C401.704 51.7598 401.672 51.5433 401.61 51.3433C401.547 51.1433 401.443 50.9698 401.297 50.8227C401.151 50.6756 400.956 50.5608 400.712 50.4782C400.468 50.3957 400.167 50.3544 399.807 50.3544C399.448 50.3544 399.146 50.3988 398.903 50.4877C398.659 50.5766 398.461 50.6952 398.308 50.8433C398.156 50.9915 398.047 51.1645 397.981 51.3624C397.915 51.5603 397.882 51.7682 397.882 51.9862C397.882 52.2275 397.913 52.4497 397.974 52.6529C398.035 52.8561 398.137 53.0313 398.282 53.1783C398.426 53.3254 398.62 53.4397 398.862 53.5212C399.104 53.6027 399.408 53.6435 399.774 53.6435C400.136 53.6435 400.441 53.599 400.688 53.5101C400.935 53.4212 401.134 53.3011 401.285 53.1498C401.436 52.9984 401.543 52.8233 401.608 52.6244C401.672 52.4254 401.704 52.2148 401.704 51.9926Z" fill="black"/>
    <path d="M407.71 51.1515C407.71 51.3568 407.659 51.542 407.556 51.7071C407.454 51.8722 407.307 52.0129 407.116 52.1293C406.925 52.2457 406.691 52.3357 406.413 52.3992C406.136 52.4627 405.804 52.4944 405.419 52.4944H404.712V53.9739C404.712 53.9908 404.704 54.0056 404.69 54.0183C404.676 54.031 404.653 54.041 404.623 54.0485C404.592 54.0559 404.551 54.0622 404.498 54.0675C404.445 54.0728 404.378 54.0755 404.298 54.0755C404.218 54.0755 404.151 54.0728 404.098 54.0675C404.045 54.0622 404.003 54.0559 403.971 54.0485C403.938 54.0411 403.916 54.031 403.903 54.0183C403.89 54.0056 403.884 53.9908 403.884 53.9739V50.1832C403.884 50.0985 403.918 50.0382 403.985 50.0022C404.052 49.9662 404.128 49.9482 404.211 49.9482H405.545C405.679 49.9482 405.808 49.952 405.932 49.9594C406.055 49.9667 406.201 49.9826 406.37 50.007C406.538 50.0313 406.71 50.0768 406.885 50.1435C407.06 50.2102 407.208 50.2922 407.33 50.3895C407.452 50.4869 407.546 50.5996 407.612 50.7276C407.677 50.8557 407.71 50.997 407.71 51.1515ZM406.839 51.1959C406.839 51.0287 406.792 50.889 406.697 50.7769C406.602 50.6647 406.485 50.5811 406.346 50.5261C406.206 50.471 406.062 50.4361 405.913 50.4213C405.763 50.4065 405.618 50.3991 405.477 50.3991H404.712V52.0468H405.458C405.708 52.0468 405.916 52.0256 406.081 51.9833C406.246 51.9409 406.385 51.8822 406.497 51.8071C406.61 51.7319 406.695 51.642 406.752 51.5372C406.81 51.4325 406.839 51.3187 406.839 51.1959Z" fill="black"/>
    <path d="M412.889 50.1832C412.889 50.2234 412.885 50.2583 412.879 50.2879C412.873 50.3176 412.862 50.3414 412.848 50.3594C412.833 50.3774 412.816 50.3906 412.795 50.3991C412.774 50.4075 412.751 50.4118 412.725 50.4118H410.973V53.9739C410.973 53.9908 410.967 54.0056 410.954 54.0183C410.941 54.031 410.919 54.0411 410.887 54.0485C410.854 54.0559 410.812 54.0622 410.759 54.0675C410.706 54.0728 410.64 54.0755 410.559 54.0755C410.482 54.0755 410.417 54.0728 410.362 54.0675C410.307 54.0622 410.264 54.0559 410.232 54.0485C410.2 54.0411 410.178 54.031 410.165 54.0183C410.152 54.0056 410.146 53.9908 410.146 53.9739V50.4118H408.394C408.368 50.4118 408.345 50.4075 408.324 50.3991C408.303 50.3906 408.286 50.3774 408.273 50.3594C408.26 50.3414 408.25 50.3176 408.242 50.2879C408.233 50.2583 408.23 50.2234 408.23 50.1832C408.23 50.143 408.233 50.1075 408.242 50.0768C408.251 50.0461 408.26 50.0213 408.273 50.0022C408.286 49.9832 408.303 49.9694 408.324 49.9609C408.345 49.9525 408.368 49.9483 408.394 49.9482H412.725C412.751 49.9482 412.774 49.9525 412.795 49.9609C412.816 49.9694 412.834 49.9832 412.848 50.0022C412.862 50.0213 412.873 50.0461 412.879 50.0768C412.885 50.1075 412.889 50.143 412.889 50.1832Z" fill="black"/>
    <path d="M414.626 53.9739C414.626 53.9908 414.62 54.0056 414.607 54.0183C414.594 54.031 414.572 54.0411 414.54 54.0485C414.508 54.0559 414.465 54.0622 414.412 54.0675C414.359 54.0728 414.293 54.0755 414.213 54.0755C414.136 54.0755 414.07 54.0728 414.015 54.0675C413.961 54.0623 413.917 54.0559 413.885 54.0485C413.853 54.0411 413.831 54.031 413.818 54.0183C413.805 54.0056 413.799 53.9908 413.799 53.9739V50.0308C413.799 50.0139 413.806 49.9991 413.821 49.9864C413.835 49.9737 413.859 49.9636 413.893 49.9562C413.926 49.9488 413.97 49.9425 414.023 49.9372C414.076 49.9319 414.139 49.9292 414.213 49.9292C414.293 49.9292 414.359 49.9319 414.412 49.9372C414.465 49.9424 414.508 49.9488 414.54 49.9562C414.572 49.9636 414.595 49.9737 414.607 49.9864C414.62 49.9991 414.627 50.0139 414.627 50.0308L414.626 53.9739Z" fill="black"/>
    <path d="M421.499 51.9545C421.499 52.2868 421.44 52.5863 421.321 52.8529C421.202 53.1196 421.025 53.3466 420.789 53.5339C420.553 53.7212 420.257 53.8652 419.901 53.9657C419.545 54.0662 419.13 54.1165 418.655 54.1165C418.186 54.1165 417.781 54.0705 417.44 53.9784C417.098 53.8863 416.815 53.7525 416.592 53.5768C416.369 53.4011 416.203 53.1831 416.094 52.9228C415.985 52.6625 415.931 52.363 415.931 52.0243C415.931 51.7005 415.99 51.4063 416.109 51.1417C416.227 50.8772 416.406 50.6523 416.643 50.4671C416.88 50.2819 417.177 50.139 417.533 50.0385C417.889 49.938 418.305 49.8877 418.78 49.8877C419.239 49.8877 419.638 49.9332 419.978 50.0242C420.318 50.1152 420.602 50.248 420.828 50.4226C421.054 50.5973 421.222 50.8131 421.333 51.0703C421.444 51.3275 421.499 51.6222 421.499 51.9545ZM420.628 51.9926C420.628 51.7598 420.597 51.5433 420.534 51.3433C420.472 51.1433 420.367 50.9698 420.221 50.8227C420.075 50.6756 419.88 50.5608 419.637 50.4782C419.393 50.3957 419.091 50.3544 418.732 50.3544C418.372 50.3544 418.071 50.3988 417.827 50.4877C417.583 50.5766 417.385 50.6952 417.233 50.8433C417.08 50.9915 416.971 51.1645 416.905 51.3624C416.84 51.5603 416.807 51.7682 416.807 51.9862C416.807 52.2275 416.837 52.4497 416.898 52.6529C416.959 52.8561 417.062 53.0313 417.206 53.1783C417.351 53.3254 417.544 53.4397 417.786 53.5212C418.028 53.6027 418.332 53.6435 418.698 53.6435C419.061 53.6435 419.366 53.599 419.613 53.5101C419.86 53.4212 420.059 53.3011 420.209 53.1498C420.36 52.9984 420.468 52.8233 420.532 52.6244C420.596 52.4254 420.628 52.2148 420.628 51.9926Z" fill="black"/>
    <path d="M427.515 53.8307C427.515 53.8731 427.505 53.909 427.484 53.9387C427.463 53.9683 427.436 53.9926 427.402 54.0117C427.368 54.0307 427.331 54.0445 427.289 54.053C427.247 54.0614 427.206 54.0657 427.164 54.0657H426.899C426.816 54.0657 426.743 54.0598 426.68 54.0482C426.618 54.0366 426.558 54.0154 426.502 53.9847C426.446 53.954 426.39 53.9122 426.334 53.8593C426.277 53.8064 426.216 53.7387 426.148 53.6561L424.185 51.3195C424.082 51.1988 423.979 51.0724 423.874 50.9401C423.77 50.8078 423.673 50.6792 423.583 50.5544H423.573C423.579 50.7068 423.584 50.8623 423.588 51.0211C423.591 51.1798 423.593 51.3375 423.593 51.4941V53.9736C423.593 53.9884 423.586 54.0027 423.573 54.0165C423.561 54.0302 423.539 54.0408 423.508 54.0482C423.478 54.0556 423.438 54.062 423.388 54.0672C423.338 54.0725 423.275 54.0752 423.198 54.0752C423.121 54.0752 423.058 54.0725 423.008 54.0672C422.958 54.062 422.919 54.0556 422.89 54.0482C422.861 54.0408 422.84 54.0302 422.827 54.0165C422.815 54.0027 422.808 53.9884 422.808 53.9736V50.1829C422.808 50.0983 422.843 50.0379 422.914 50.002C422.985 49.966 423.062 49.948 423.145 49.948H423.54C423.633 49.948 423.711 49.9533 423.773 49.9639C423.836 49.9745 423.892 49.9919 423.942 50.0162C423.991 50.0406 424.039 50.0745 424.086 50.1178C424.132 50.1612 424.183 50.2157 424.238 50.2813L425.749 52.0846C425.842 52.1947 425.932 52.3021 426.018 52.4069C426.105 52.5116 426.188 52.6148 426.269 52.7164C426.349 52.818 426.428 52.918 426.507 53.0164C426.585 53.1148 426.663 53.2138 426.74 53.3132H426.745C426.739 53.146 426.735 52.972 426.733 52.791C426.732 52.61 426.73 52.436 426.73 52.2687V50.0401C426.73 50.0252 426.737 50.0115 426.75 49.9988C426.762 49.9861 426.784 49.975 426.815 49.9654C426.845 49.9559 426.885 49.9491 426.935 49.9448C426.985 49.9406 427.05 49.9385 427.13 49.9385C427.2 49.9385 427.261 49.9406 427.313 49.9448C427.364 49.949 427.404 49.9559 427.433 49.9654C427.462 49.975 427.483 49.9861 427.496 49.9988C427.508 50.0115 427.515 50.0252 427.515 50.0401L427.515 53.8307Z" fill="black"/>
    <path d="M432.526 52.9037C432.526 53.0963 432.472 53.2678 432.364 53.418C432.257 53.5683 432.108 53.6958 431.917 53.8006C431.726 53.9054 431.501 53.9842 431.243 54.0371C430.985 54.09 430.706 54.1165 430.408 54.1165C430.199 54.1165 430.006 54.1049 429.828 54.0816C429.65 54.0583 429.491 54.0297 429.351 53.9958C429.212 53.962 429.095 53.9271 429 53.8911C428.905 53.8551 428.84 53.8244 428.803 53.799C428.766 53.7736 428.739 53.7413 428.721 53.7022C428.703 53.663 428.695 53.6106 428.695 53.545C428.695 53.4985 428.698 53.4598 428.704 53.4292C428.711 53.3985 428.72 53.3736 428.733 53.3545C428.746 53.3355 428.762 53.3223 428.781 53.3149C428.801 53.3075 428.823 53.3038 428.849 53.3038C428.894 53.3038 428.957 53.3217 429.039 53.3577C429.121 53.3937 429.226 53.4329 429.354 53.4752C429.483 53.5175 429.637 53.5572 429.819 53.5942C430 53.6313 430.209 53.6498 430.447 53.6498C430.626 53.6498 430.791 53.6339 430.94 53.6022C431.089 53.5704 431.218 53.5255 431.325 53.4672C431.433 53.409 431.515 53.3376 431.573 53.253C431.631 53.1683 431.66 53.072 431.66 52.964C431.66 52.8476 431.62 52.7482 431.539 52.6656C431.459 52.5831 431.353 52.5106 431.222 52.4482C431.09 52.3857 430.94 52.3286 430.772 52.2767C430.603 52.2249 430.431 52.1719 430.254 52.118C430.078 52.064 429.906 52.0042 429.739 51.9386C429.572 51.873 429.423 51.7957 429.292 51.7068C429.16 51.6179 429.053 51.5137 428.972 51.3941C428.89 51.2745 428.849 51.1312 428.849 50.9639C428.849 50.7925 428.896 50.6396 428.991 50.5052C429.086 50.3708 429.217 50.2581 429.386 50.1671C429.554 50.0761 429.755 50.0068 429.987 49.9591C430.22 49.9115 430.471 49.8877 430.74 49.8877C430.878 49.8877 431.017 49.8957 431.157 49.9115C431.296 49.9274 431.428 49.9486 431.551 49.975C431.675 50.0015 431.785 50.0311 431.881 50.0639C431.977 50.0967 432.041 50.1232 432.071 50.1433C432.102 50.1634 432.122 50.1793 432.131 50.1909C432.141 50.2025 432.149 50.2173 432.155 50.2353C432.162 50.2533 432.166 50.275 432.17 50.3004C432.173 50.3258 432.175 50.3586 432.175 50.3988C432.175 50.4369 432.172 50.4708 432.167 50.5004C432.162 50.5301 432.155 50.5549 432.146 50.575C432.136 50.5951 432.122 50.6099 432.105 50.6195C432.087 50.629 432.067 50.6338 432.045 50.6338C432.009 50.6338 431.954 50.6189 431.879 50.5893C431.803 50.5597 431.711 50.5263 431.602 50.4893C431.493 50.4523 431.364 50.4184 431.214 50.3877C431.065 50.357 430.897 50.3417 430.711 50.3417C430.538 50.3417 430.387 50.357 430.259 50.3877C430.131 50.4184 430.025 50.4591 429.941 50.5099C429.858 50.5607 429.795 50.6211 429.754 50.6909C429.712 50.7607 429.691 50.8348 429.691 50.9131C429.691 51.0274 429.731 51.1258 429.811 51.2084C429.892 51.2909 429.998 51.3639 430.131 51.4274C430.265 51.4909 430.416 51.5491 430.586 51.6021C430.756 51.655 430.93 51.7084 431.106 51.7624C431.282 51.8163 431.456 51.8756 431.626 51.9402C431.796 52.0047 431.947 52.0809 432.081 52.1688C432.214 52.2566 432.321 52.3603 432.403 52.4799C432.485 52.5995 432.526 52.7408 432.526 52.9037Z" fill="black"/>
    <path fill-rule="evenodd" clip-rule="evenodd" d="M300.702 198.797L300.689 211.12L297.562 210.046L297.54 195.625L301.532 196.739C304.087 197.464 305.65 198.874 305.625 201.344C305.599 204.216 304.265 205.331 302.004 204.28V198.954C302.004 198.168 300.702 197.595 300.702 198.797Z" fill="black"/>
    <path fill-rule="evenodd" clip-rule="evenodd" d="M296.903 204.388L296.432 204.539L291.881 206.172C290.923 206.611 290.122 206.895 290.117 207.611C290.141 208.517 291.561 208.958 293.641 209.306C294.749 209.528 295.881 209.379 296.85 209.174L296.851 207.466C296.851 207.466 295.054 208.164 294.627 208.223L293.762 208.218C293.12 208.214 292.821 207.803 293.461 207.583L296.902 206.28L296.903 204.388Z" fill="black"/>
    <path fill-rule="evenodd" clip-rule="evenodd" d="M304.991 205.157C303.796 205.153 302.141 205.478 301.32 205.86V207.806L303.483 207.015L305.197 206.47C306.982 206.176 307.691 206.8 305.953 207.32L301.32 209.016L301.315 210.903L308.083 208.468C308.83 208.207 309.88 207.681 309.883 207.035C309.702 206.034 308.196 205.45 305.859 205.203C305.649 205.181 305.438 205.168 305.229 205.161C305.149 205.159 305.07 205.157 304.99 205.157L304.991 205.157Z" fill="black"/>
</svg>
