<svg width="28" height="28" viewBox="0 0 28 28" fill="none" xmlns="http://www.w3.org/2000/svg">
<path d="M4.66667 1.75C3.05584 1.75 1.75 3.05584 1.75 4.66667V9.91667C1.75 10.561 2.27234 11.0833 2.91667 11.0833H4.08333C4.72766 11.0833 5.25 10.561 5.25 9.91667V5.25H9.91667C10.561 5.25 11.0833 4.72766 11.0833 4.08333V2.91667C11.0833 2.27234 10.561 1.75 9.91667 1.75H4.66667Z" fill="currentColor"/>
<path d="M23.3337 1.75C24.9445 1.75 26.2503 3.05584 26.2503 4.66667V9.91667C26.2503 10.561 25.728 11.0833 25.0837 11.0833H23.917C23.2726 11.0833 22.7503 10.561 22.7503 9.91667V5.25H18.0837C17.4393 5.25 16.917 4.72766 16.917 4.08333V2.91667C16.917 2.27234 17.4393 1.75 18.0837 1.75H23.3337Z" fill="currentColor"/>
<path d="M23.3337 26.2498C24.9445 26.2498 26.2503 24.944 26.2503 23.3332V18.0832C26.2503 17.4388 25.728 16.9165 25.0837 16.9165H23.917C23.2726 16.9165 22.7503 17.4388 22.7503 18.0832V22.7498H18.0837C17.4393 22.7498 16.917 23.2722 16.917 23.9165V25.0832C16.917 25.7275 17.4393 26.2498 18.0837 26.2498H23.3337Z" fill="currentColor"/>
<path d="M1.75 23.3332C1.75 24.944 3.05584 26.2498 4.66667 26.2498H9.91667C10.561 26.2498 11.0833 25.7275 11.0833 25.0832V23.9165C11.0833 23.2722 10.561 22.7498 9.91667 22.7498H5.25V18.0832C5.25 17.4388 4.72766 16.9165 4.08333 16.9165H2.91667C2.27234 16.9165 1.75 17.4388 1.75 18.0832V23.3332Z" fill="currentColor"/>
</svg>
