<svg width="100%" height="100%" viewBox="0 0 40 40" fill="none">
    <path d="M29.0417 8.5415H11.9584C7.24098 8.5415 3.41675 12.3657 3.41675 17.0832V23.9165C3.41675 28.6339 7.24098 32.4582 11.9584 32.4582H29.0417C33.7592 32.4582 37.5834 28.6339 37.5834 23.9165V17.0832C37.5834 12.3657 33.7592 8.5415 29.0417 8.5415Z" stroke-width="3" stroke-linecap="round"/>
    <path d="M15.375 17.0835V23.9168" stroke-width="3" stroke-linecap="round" stroke-linejoin="round"/>
    <path d="M18.7916 20.5H11.9583" stroke-width="3" stroke-linecap="round" stroke-linejoin="round"/>
    <path d="M29.0416 18.7917C29.9851 18.7917 30.7499 18.0268 30.7499 17.0833C30.7499 16.1398 29.9851 15.375 29.0416 15.375C28.0981 15.375 27.3333 16.1398 27.3333 17.0833C27.3333 18.0268 28.0981 18.7917 29.0416 18.7917Z" fill="white"/>
    <path d="M25.6251 25.6252C26.5686 25.6252 27.3334 24.8603 27.3334 23.9168C27.3334 22.9733 26.5686 22.2085 25.6251 22.2085C24.6816 22.2085 23.9167 22.9733 23.9167 23.9168C23.9167 24.8603 24.6816 25.6252 25.6251 25.6252Z" fill="white"/>
</svg>
