<svg width="136" height="136" viewBox="0 0 136 136" fill="none" xmlns="http://www.w3.org/2000/svg">
<path d="M68.1702 80.0776C67.0195 80.0776 65.7654 80.313 64.2022 81.3524L50.0897 94.9622C48.9626 96.0345 48.1811 97.202 47.6478 98.7507L45.5471 124.318C46.9457 129.558 50.2545 133.067 55.6557 134.05C65.0633 134.793 72.2892 134.676 80.6848 134.05C86.086 133.067 89.4127 129.558 90.8113 124.318L88.7106 98.7507C88.1773 97.202 87.3958 96.0345 86.2687 94.9622L72.1562 81.3524C70.593 80.313 69.3209 80.0776 68.1702 80.0776Z" fill="#DE2900" stroke="black" stroke-width="1.2"/>
<path d="M68.1702 55.4868C67.0195 55.4868 65.7654 55.2514 64.2022 54.212L50.0897 40.6022C48.9626 39.53 48.1811 38.3624 47.6478 36.8138L45.5471 11.2461C46.9457 6.00636 50.2545 2.49695 55.6557 1.51455C65.0633 0.771256 72.2892 0.888196 80.6848 1.51455C86.086 2.49695 89.4127 6.00636 90.8113 11.2461L88.7106 36.8138C88.1773 38.3624 87.3958 39.53 86.2687 40.6022L72.1562 54.212C70.593 55.2514 69.3209 55.4868 68.1702 55.4868Z" fill="#DE2900" stroke="black" stroke-width="1.2"/>
<path d="M80.5132 67.7187C80.5132 68.8694 80.7486 70.1235 81.788 71.6867L95.3977 85.7992C96.47 86.9263 97.6376 87.7078 99.1862 88.2411L124.754 90.3418C129.994 88.9432 133.503 85.6344 134.485 80.2332C135.229 70.8256 135.112 63.5997 134.485 55.2042C133.503 49.8029 129.994 46.4762 124.754 45.0776L99.1862 47.1784C97.6376 47.7116 96.47 48.4931 95.3977 49.6202L81.788 63.7327C80.7486 65.2959 80.5132 66.568 80.5132 67.7187Z" fill="#DE2900" stroke="black" stroke-width="1.2"/>
<path d="M55.4868 67.7007C55.4868 66.55 55.2514 65.2959 54.212 63.7327L40.6022 49.6202C39.53 48.4931 38.3624 47.7116 36.8138 47.1784L11.2461 45.0776C6.00636 46.4762 2.49695 49.785 1.51455 55.1862C0.771256 64.5938 0.888196 71.8197 1.51455 80.2153C2.49695 85.6165 6.00636 88.9432 11.2461 90.3418L36.8138 88.2411C38.3624 87.7078 39.53 86.9263 40.6022 85.7992L54.212 71.6867C55.2514 70.1235 55.4868 68.8514 55.4868 67.7007Z" fill="#DE2900" stroke="black" stroke-width="1.2"/>
</svg>
