<svg width="55" height="55" viewBox="0 0 55 55" fill="none" xmlns="http://www.w3.org/2000/svg">
<path d="M53 27.5123C52.9967 34.2732 50.3087 40.7561 45.5268 45.5356C40.745 50.3151 34.2609 53 27.5 53C20.7391 53 14.255 50.3151 9.47316 45.5356C4.69134 40.7561 2.00327 34.2732 2 27.5123C1.99838 24.1626 2.65675 20.8454 3.93752 17.7501C5.21829 14.6549 7.09636 11.8424 9.46441 9.47316C11.8325 7.10395 14.6441 5.22453 17.7387 3.94226C20.8333 2.65999 24.1503 2 27.5 2C30.8497 2 34.1667 2.65999 37.2613 3.94226C40.3559 5.22453 43.1675 7.10395 45.5356 9.47316C47.9036 11.8424 49.7817 14.6549 51.0625 17.7501C52.3432 20.8454 53.0016 24.1626 53 27.5123Z" fill="black" stroke="#DE2900" stroke-width="4"/>
<path d="M12.8091 12.9868L42.1911 42.0384Z" fill="#DE2900"/>
<path d="M12.8091 12.9868L42.1911 42.0384" stroke="#DE2900" stroke-width="4"/>
<path d="M42.091 12.7954L12.9092 42.2294Z" fill="#DE2900"/>
<path d="M42.091 12.7954L12.9092 42.2294" stroke="#DE2900" stroke-width="4"/>
</svg>
